<svg width="120" height="120" viewBox="0 0 120 120" fill="none" xmlns="http://www.w3.org/2000/svg">
<g filter="url(#filter0_di_182_19320)">
<path d="M108 55C108 28.4903 86.5097 7 60 7C33.4903 7 12 28.4903 12 55C12 81.5097 33.4903 103 60 103C86.5097 103 108 81.5097 108 55Z" fill="#4B48E2"/>
</g>
<path d="M55.656 54.136C54.288 54.136 53.208 55.336 53.208 56.8C53.208 58.264 54.312 59.464 55.656 59.464C57.024 59.464 58.104 58.264 58.104 56.8C58.128 55.336 57.024 54.136 55.656 54.136ZM64.416 54.136C63.048 54.136 61.968 55.336 61.968 56.8C61.968 58.264 63.072 59.464 64.416 59.464C65.784 59.464 66.864 58.264 66.864 56.8C66.864 55.336 65.784 54.136 64.416 54.136Z" fill="white"/>
<path d="M76.08 34H43.92C41.208 34 39 36.208 39 38.944V71.392C39 74.128 41.208 76.336 43.92 76.336H71.136L69.864 71.896L72.936 74.752L75.84 77.44L81 82V38.944C81 36.208 78.792 34 76.08 34ZM66.816 65.344C66.816 65.344 65.952 64.312 65.232 63.4C68.376 62.512 69.576 60.544 69.576 60.544C68.592 61.192 67.656 61.648 66.816 61.96C65.616 62.464 64.464 62.8 63.336 62.992C61.032 63.424 58.92 63.304 57.12 62.968C55.752 62.704 54.576 62.32 53.592 61.936C53.04 61.72 52.44 61.456 51.84 61.12C51.768 61.072 51.696 61.048 51.624 61C51.576 60.976 51.552 60.952 51.528 60.928C51.096 60.688 50.856 60.52 50.856 60.52C50.856 60.52 52.008 62.44 55.056 63.352C54.336 64.264 53.448 65.344 53.448 65.344C48.144 65.176 46.128 61.696 46.128 61.696C46.128 53.968 49.584 47.704 49.584 47.704C53.04 45.112 56.328 45.184 56.328 45.184L56.568 45.472C52.248 46.72 50.256 48.616 50.256 48.616C50.256 48.616 50.784 48.328 51.672 47.92C54.24 46.792 56.28 46.48 57.12 46.408C57.264 46.384 57.384 46.36 57.528 46.36C58.992 46.168 60.648 46.12 62.376 46.312C64.656 46.576 67.104 47.248 69.6 48.616C69.6 48.616 67.704 46.816 63.624 45.568L63.96 45.184C63.96 45.184 67.248 45.112 70.704 47.704C70.704 47.704 74.16 53.968 74.16 61.696C74.16 61.696 72.12 65.176 66.816 65.344Z" fill="white"/>
<defs>
<filter id="filter0_di_182_19320" x="0.54224" y="-1.0518" width="118.916" height="120.51" filterUnits="userSpaceOnUse" color-interpolation-filters="sRGB">
<feFlood flood-opacity="0" result="BackgroundImageFix"/>
<feColorMatrix in="SourceAlpha" type="matrix" values="0 0 0 0 0 0 0 0 0 0 0 0 0 0 0 0 0 0 127 0" result="hardAlpha"/>
<feOffset dy="5"/>
<feGaussianBlur stdDeviation="5.72888"/>
<feColorMatrix type="matrix" values="0 0 0 0 0 0 0 0 0 0 0 0 0 0 0 0 0 0 0.1 0"/>
<feBlend mode="normal" in2="BackgroundImageFix" result="effect1_dropShadow_182_19320"/>
<feBlend mode="normal" in="SourceGraphic" in2="effect1_dropShadow_182_19320" result="shape"/>
<feColorMatrix in="SourceAlpha" type="matrix" values="0 0 0 0 0 0 0 0 0 0 0 0 0 0 0 0 0 0 127 0" result="hardAlpha"/>
<feOffset dy="-8.0518"/>
<feGaussianBlur stdDeviation="8.0518"/>
<feComposite in2="hardAlpha" operator="arithmetic" k2="-1" k3="1"/>
<feColorMatrix type="matrix" values="0 0 0 0 0 0 0 0 0 0.152833 0 0 0 0 0.545833 0 0 0 0.47 0"/>
<feBlend mode="normal" in2="shape" result="effect2_innerShadow_182_19320"/>
</filter>
</defs>
</svg>
