<svg width="120" height="120" viewBox="0 0 120 120" fill="none" xmlns="http://www.w3.org/2000/svg">
<g filter="url(#filter0_di_182_19323)">
<path d="M12 55C12 81.5097 33.4903 103 60 103C86.5097 103 108 81.5097 108 55C108 28.4903 86.5097 7 60 7C33.4903 7 12 28.4903 12 55Z" fill="#082A51"/>
</g>
<g filter="url(#filter1_di_182_19323)">
<path fill-rule="evenodd" clip-rule="evenodd" d="M59.9266 31.576C46.7156 31.576 36 42.2916 36 55.5026C36 66.0714 42.8991 75.0256 52.2936 78.2549C53.4679 78.4017 53.9083 77.6678 53.9083 77.0806C53.9083 76.4935 53.9083 75.0256 53.9083 72.9705C47.3028 74.4384 45.8349 69.7412 45.8349 69.7412C44.8073 66.9522 43.1927 66.2182 43.1927 66.2182C40.9908 64.7503 43.3394 64.7503 43.3394 64.7503C45.6881 64.8971 47.0092 67.2457 47.0092 67.2457C49.211 70.9155 52.5872 69.888 53.9083 69.3008C54.055 67.6861 54.789 66.6586 55.3761 66.0714C50.0917 65.4843 44.5138 63.4292 44.5138 54.1815C44.5138 51.5393 45.3945 49.4843 47.0092 47.7228C46.8624 47.2824 45.9817 44.787 47.3028 41.5577C47.3028 41.5577 49.3578 40.9705 53.9083 44.0531C55.8165 43.4659 57.8716 43.3191 59.9266 43.3191C61.9816 43.3191 64.0367 43.6127 65.945 44.0531C70.4954 40.9705 72.5505 41.5577 72.5505 41.5577C73.8716 44.787 72.9908 47.2824 72.844 47.8696C74.3119 49.4843 75.3394 51.6861 75.3394 54.3283C75.3394 63.576 69.7615 65.4843 64.4771 66.0714C65.3578 66.8054 66.0917 68.2733 66.0917 70.4751C66.0917 73.7045 66.0917 76.1999 66.0917 77.0806C66.0917 77.6678 66.5321 78.4017 67.7064 78.2549C77.2477 75.0256 84 66.0714 84 55.5026C83.8532 42.2916 73.1376 31.576 59.9266 31.576Z" fill="white"/>
</g>
<defs>
<filter id="filter0_di_182_19323" x="0.54224" y="0.54224" width="118.916" height="118.916" filterUnits="userSpaceOnUse" color-interpolation-filters="sRGB">
<feFlood flood-opacity="0" result="BackgroundImageFix"/>
<feColorMatrix in="SourceAlpha" type="matrix" values="0 0 0 0 0 0 0 0 0 0 0 0 0 0 0 0 0 0 127 0" result="hardAlpha"/>
<feOffset dy="5"/>
<feGaussianBlur stdDeviation="5.72888"/>
<feColorMatrix type="matrix" values="0 0 0 0 0 0 0 0 0 0 0 0 0 0 0 0 0 0 0.1 0"/>
<feBlend mode="normal" in2="BackgroundImageFix" result="effect1_dropShadow_182_19323"/>
<feBlend mode="normal" in="SourceGraphic" in2="effect1_dropShadow_182_19323" result="shape"/>
<feColorMatrix in="SourceAlpha" type="matrix" values="0 0 0 0 0 0 0 0 0 0 0 0 0 0 0 0 0 0 127 0" result="hardAlpha"/>
<feOffset dy="-2"/>
<feGaussianBlur stdDeviation="6"/>
<feComposite in2="hardAlpha" operator="arithmetic" k2="-1" k3="1"/>
<feColorMatrix type="matrix" values="0 0 0 0 0 0 0 0 0 0.00583333 0 0 0 0 0.0208333 0 0 0 0.47 0"/>
<feBlend mode="normal" in2="shape" result="effect2_innerShadow_182_19323"/>
</filter>
<filter id="filter1_di_182_19323" x="12.1625" y="12.7385" width="95.675" height="94.373" filterUnits="userSpaceOnUse" color-interpolation-filters="sRGB">
<feFlood flood-opacity="0" result="BackgroundImageFix"/>
<feColorMatrix in="SourceAlpha" type="matrix" values="0 0 0 0 0 0 0 0 0 0 0 0 0 0 0 0 0 0 127 0" result="hardAlpha"/>
<feOffset dy="5"/>
<feGaussianBlur stdDeviation="11.9188"/>
<feColorMatrix type="matrix" values="0 0 0 0 0 0 0 0 0 0 0 0 0 0 0 0 0 0 0.1 0"/>
<feBlend mode="normal" in2="BackgroundImageFix" result="effect1_dropShadow_182_19323"/>
<feBlend mode="normal" in="SourceGraphic" in2="effect1_dropShadow_182_19323" result="shape"/>
<feColorMatrix in="SourceAlpha" type="matrix" values="0 0 0 0 0 0 0 0 0 0 0 0 0 0 0 0 0 0 127 0" result="hardAlpha"/>
<feOffset dy="4"/>
<feGaussianBlur stdDeviation="6"/>
<feComposite in2="hardAlpha" operator="arithmetic" k2="-1" k3="1"/>
<feColorMatrix type="matrix" values="0 0 0 0 1 0 0 0 0 1 0 0 0 0 1 0 0 0 0.47 0"/>
<feBlend mode="normal" in2="shape" result="effect2_innerShadow_182_19323"/>
</filter>
</defs>
</svg>
