<svg width="260" height="272" viewBox="0 0 260 272" fill="none" xmlns="http://www.w3.org/2000/svg">
<g filter="url(#filter0_dddddd_182_19568)">
<path d="M176.299 53.3042L152.076 27.7305C150.57 26.2114 148.808 24.761 146.859 23.6355C144.909 22.51 142.819 21.6282 140.704 21.1651L106.445 12.9737C102.342 12.0131 99.0237 12.6963 97.8513 14.7269L87.8156 32.1093L81.7659 42.5876C80.5466 44.6995 81.6142 47.9151 84.5442 50.9063L108.768 76.48C108.93 76.5738 108.965 76.702 109.127 76.7958C109.243 76.9708 109.486 77.1115 109.683 77.3334C109.846 77.4272 109.961 77.6023 110.123 77.696C110.401 77.9648 110.679 78.2336 111.086 78.4681C111.167 78.515 111.248 78.5619 111.364 78.7369C111.723 79.0526 112.21 79.3341 112.569 79.6498C112.732 79.7436 112.813 79.7905 112.976 79.8843C113.219 80.0249 113.463 80.1657 113.707 80.3064C113.869 80.4002 114.032 80.494 114.113 80.5409C114.6 80.8222 115.006 81.0566 115.541 81.2568C115.703 81.3506 115.784 81.3975 115.947 81.4912C116.109 81.585 116.353 81.7256 116.562 81.7382C116.643 81.7851 116.725 81.832 116.806 81.8789C117.178 81.9853 117.584 82.2198 117.956 82.3262C118.118 82.42 118.327 82.4326 118.49 82.5264C119.024 82.7265 119.687 82.8924 120.268 83.0113L154.527 91.2025C154.98 91.3558 155.399 91.3809 155.899 91.4529L155.98 91.4998C156.399 91.525 156.77 91.6313 157.189 91.6564C157.27 91.7033 157.27 91.7034 157.398 91.6691C157.817 91.6942 158.155 91.6724 158.492 91.6506C158.573 91.6975 158.62 91.6164 158.701 91.6633C159.039 91.6415 159.376 91.6197 159.714 91.598C159.714 91.598 159.714 91.5979 159.795 91.6448C159.795 91.6448 159.795 91.6448 159.923 91.6104C160.261 91.5887 160.517 91.52 160.82 91.3701L160.948 91.336C161.204 91.2673 161.508 91.1172 161.764 91.0485L161.811 90.9674C161.986 90.8519 162.161 90.7363 162.336 90.6207L162.383 90.5396C162.558 90.424 162.733 90.3083 162.873 90.0646C162.873 90.0646 162.873 90.0647 162.92 89.9835L162.967 89.9022C163.061 89.7398 163.236 89.6244 163.33 89.4619L169.239 79.2273L179.274 61.845C180.25 59.5924 179.182 56.3767 176.299 53.3042Z" fill="url(#paint0_radial_182_19568)"/>
<path opacity="0.3" d="M164.318 86.9998C164.224 87.1622 164.131 87.3246 163.955 87.4402L163.909 87.5215C163.909 87.5215 163.909 87.5216 163.862 87.6028C163.768 87.7652 163.593 87.8808 163.371 88.0776L163.324 88.1587C163.149 88.2742 162.974 88.3898 162.799 88.5054L162.752 88.5867C162.449 88.7366 162.193 88.8052 161.936 88.8738L161.808 88.9081C161.552 88.9768 161.168 89.0798 160.911 89.1485C160.911 89.1485 160.912 89.1484 160.783 89.1828C160.783 89.1828 160.783 89.1827 160.702 89.1358C160.365 89.1576 160.108 89.2263 159.771 89.2481C159.69 89.2012 159.643 89.2823 159.562 89.2354C159.224 89.2572 158.887 89.279 158.468 89.2539C158.387 89.207 158.387 89.2071 158.259 89.2414C157.84 89.2163 157.421 89.1912 157.049 89.0848L156.968 89.0379C156.549 89.0127 156.096 88.8595 155.596 88.7875L121.337 80.5961C120.756 80.4772 120.222 80.277 119.559 80.1111C119.397 80.0174 119.188 80.0047 119.025 79.9109C118.653 79.8046 118.247 79.5702 117.875 79.4639C117.794 79.417 117.713 79.3701 117.632 79.3232C117.469 79.2294 117.226 79.0886 117.016 79.076C116.854 78.9822 116.773 78.9353 116.61 78.8416C116.204 78.6071 115.67 78.407 115.182 78.1257C115.02 78.0319 114.857 77.9381 114.776 77.8912C114.533 77.7505 114.289 77.6097 114.045 77.469C113.883 77.3752 113.801 77.3283 113.639 77.2346C113.233 77.0001 112.792 76.6376 112.433 76.3219C112.352 76.275 112.271 76.2279 112.155 76.0529C111.877 75.7841 111.471 75.5498 111.193 75.2809C111.031 75.1872 110.915 75.012 110.753 74.9182C110.556 74.6963 110.393 74.6025 110.197 74.3806C110.034 74.2868 110 74.1586 109.837 74.0648L85.6137 48.4911C82.7307 45.4186 81.663 42.203 82.8354 40.1724L85.743 35.1364C85.8368 34.9739 85.8494 34.7647 85.9901 34.521L81.3474 42.5623C80.1281 44.6742 81.1958 47.8898 84.1258 50.881L108.349 76.4548C108.512 76.5486 108.546 76.6768 108.709 76.7706C108.824 76.9456 109.068 77.0862 109.264 77.3081C109.427 77.4019 109.542 77.577 109.705 77.6708C109.983 77.9396 110.261 78.2084 110.667 78.4429C110.748 78.4898 110.829 78.5367 110.945 78.7117C111.304 79.0274 111.792 79.3088 112.151 79.6245C112.313 79.7183 112.395 79.7652 112.557 79.859C112.801 79.9997 113.044 80.1403 113.288 80.281C113.451 80.3748 113.613 80.4686 113.694 80.5155C114.182 80.7969 114.588 81.0313 115.122 81.2314C115.284 81.3252 115.366 81.3721 115.528 81.4659C115.691 81.5597 115.934 81.7006 116.144 81.7131C116.225 81.76 116.306 81.8068 116.387 81.8537C116.759 81.9601 117.165 82.1944 117.537 82.3008C117.699 82.3946 117.909 82.4073 118.071 82.5011C118.606 82.7013 119.268 82.867 119.849 82.986L154.108 91.1774C154.561 91.3306 154.98 91.3558 155.48 91.4278L155.561 91.4747C155.98 91.4998 156.352 91.6061 156.77 91.6313C156.852 91.6782 156.852 91.6782 156.98 91.6438C157.399 91.669 157.736 91.6471 158.074 91.6254C158.155 91.6723 158.202 91.5911 158.283 91.638C158.62 91.6163 158.958 91.5944 159.295 91.5726C159.295 91.5726 159.295 91.5727 159.377 91.6195C159.377 91.6195 159.376 91.6196 159.504 91.5853C159.842 91.5635 160.098 91.4948 160.402 91.3449L160.529 91.3106C160.786 91.2419 161.089 91.0921 161.345 91.0235L161.392 90.9422C161.567 90.8266 161.742 90.711 161.917 90.5955L161.964 90.5143C162.139 90.3988 162.314 90.2833 162.455 90.0396C162.455 90.0396 162.455 90.0395 162.502 89.9583L162.549 89.877C162.642 89.7145 162.817 89.599 162.911 89.4365L167.554 81.395C167.46 81.5575 167.319 81.8014 167.144 81.9169L164.237 86.9529L164.318 86.9998Z" fill="#E326E7"/>
<path opacity="0.3" d="M160.402 80.8398L126.143 72.6484C124.074 72.104 121.937 71.3034 119.988 70.1779C118.038 69.0524 116.23 67.6832 114.771 66.0829L90.5473 40.5092C87.9422 37.7055 86.8151 34.7806 87.5688 32.7249L86.162 35.1616C85.4083 37.2174 86.5353 40.1423 89.1404 42.946L113.364 68.5197C114.87 70.0388 116.631 71.4892 118.581 72.6147C120.53 73.7402 122.62 74.622 124.736 75.0852L158.995 83.2766C162.726 84.1308 165.822 83.6444 167.226 81.9638L168.633 79.527C167.182 81.2888 164.086 81.7752 160.402 80.8398Z" fill="#A35C09"/>
<path d="M146.812 23.7166C144.862 22.5911 142.772 21.7092 140.657 21.2461L106.398 13.0547C102.295 12.0941 98.9767 12.7775 97.8043 14.8082L87.7686 32.1905C86.5493 34.3024 87.6169 37.518 90.5469 40.5092L114.77 66.083C116.276 67.6021 118.038 69.0525 119.987 70.178C121.937 71.3035 124.027 72.1853 126.142 72.6484L160.401 80.8398C164.504 81.8004 167.822 81.1172 168.995 79.0866L179.031 61.7042C180.25 59.5923 179.182 56.3765 176.252 53.3853L152.029 27.8116C150.57 26.2113 148.761 24.8421 146.812 23.7166Z" fill="url(#paint1_linear_182_19568)"/>
<path d="M175.081 52.6008L150.857 27.0271C149.711 25.8237 148.309 24.689 146.765 23.798C145.222 22.9069 143.538 22.2596 141.923 21.8685L107.663 13.6771C104.433 12.8949 101.836 13.4533 100.898 15.0779L90.8621 32.4604C89.9242 34.0849 90.739 36.613 93.0317 39.0197L117.255 64.5935C118.402 65.7968 119.804 66.9316 121.348 67.8226C122.891 68.7136 124.575 69.3609 126.19 69.752L160.45 77.9434C163.68 78.7256 166.277 78.1672 167.215 76.5427L177.251 59.1601C178.189 57.5356 177.293 54.9607 175.081 52.6008Z" fill="url(#paint2_radial_182_19568)"/>
<path opacity="0.4" d="M122.614 65.629C121.558 65.0194 120.515 64.2004 119.681 63.394L95.457 37.8203C93.8358 36.1262 93.2269 34.3667 93.9304 33.1483L103.966 15.7658C104.623 14.6286 106.451 14.2762 108.776 14.7519L143.035 22.9433C144.15 23.2623 145.3 23.7095 146.437 24.366C147.574 25.0226 148.536 25.7946 149.37 26.6011L173.594 52.1748C175.215 53.8689 175.824 55.6283 175.121 56.8467L165.085 74.2293C164.428 75.3665 162.6 75.7189 160.275 75.2432L126.016 67.0518C124.901 66.7327 123.67 66.2387 122.614 65.629ZM146.578 24.1223C145.441 23.4658 144.128 22.9248 142.966 22.687L108.707 14.4956C106.301 13.973 104.345 14.3598 103.641 15.5782L93.6056 32.9608C92.9021 34.1792 93.5451 36.0666 95.2006 37.8888L119.424 63.4625C120.293 64.3971 121.336 65.2162 122.473 65.8727C123.61 66.5293 124.923 67.0702 126.085 67.3081L160.344 75.4995C162.75 76.0221 164.706 75.6352 165.41 74.4168L175.445 57.0343C176.149 55.8159 175.506 53.9285 173.85 52.1063L149.627 26.5325C148.758 25.598 147.715 24.7789 146.578 24.1223Z" fill="white"/>
<path opacity="0.4" d="M124.818 61.8118L101.462 37.1725L111.17 20.3587L144.186 28.2653L167.541 52.9045L157.833 69.7183L124.818 61.8118ZM144.373 27.9402L110.986 19.9273L110.904 19.8805L101.056 36.938L124.724 61.9742L158.112 69.9871L158.193 70.0339L168.041 52.9764L144.373 27.9402Z" fill="white"/>
<path d="M115.284 23.9254L142.873 30.5399L162.396 51.1251L154.329 65.096L126.741 58.4817L107.218 37.8963L115.284 23.9254ZM143.717 29.0778L113.269 21.7875L104.359 37.2205L125.897 59.9438L156.344 67.234L165.254 51.801L143.717 29.0778Z" fill="url(#paint3_linear_182_19568)"/>
<path d="M142.919 30.4585L115.284 23.9253L107.218 37.8962L126.74 58.4816L154.329 65.0959L162.395 51.125L142.919 30.4585Z" fill="url(#paint4_radial_182_19568)"/>
<path d="M142.919 30.4585L115.284 23.9253L114.58 25.1437L142.216 31.6769L161.692 52.3434L162.395 51.125L142.919 30.4585Z" fill="url(#paint5_linear_182_19568)"/>
<g filter="url(#filter1_di_182_19568)">
<path d="M139.985 46.0263C141.441 47.3548 142.398 48.5316 142.806 49.4968C143.213 50.4619 143.098 51.5334 142.43 52.6908L142.16 53.1578C140.812 55.4933 137.595 55.0975 132.55 52.5104L131.776 53.8507C131.647 54.074 131.432 54.0847 131.117 53.903L129.166 52.7767C128.852 52.595 128.753 52.4032 128.882 52.1798L129.633 50.8801C127.548 49.6227 125.345 48.1339 122.981 46.4171C122.627 46.1596 122.52 45.9084 122.66 45.6635L123.809 43.6734C123.95 43.4297 124.241 43.435 124.65 43.671L134.183 49.1748C135.535 49.9554 136.125 50.025 136.441 49.477L136.547 49.2942C136.875 48.7253 136.437 48.1748 135.024 46.8448L130.235 42.5641C127.715 40.3233 127.077 38.5168 128.447 36.1437L128.681 35.7386C130.041 33.3828 133.014 33.6102 138.059 36.2789L138.822 34.9577C138.951 34.7343 139.166 34.7236 139.481 34.9053L141.431 36.0317C141.746 36.2133 141.845 36.4052 141.716 36.6286L140.977 37.908C142.57 38.8548 144.395 40.1251 146.477 41.6789C146.82 41.9564 146.948 42.1681 146.843 42.351L145.613 44.4817C145.484 44.705 145.229 44.7206 144.816 44.4824L136.667 39.7778C135.283 38.9786 134.683 38.9297 134.319 39.5593L134.25 39.6785C133.969 40.1657 134.293 40.8399 135.221 41.7011L139.985 46.0263Z" fill="url(#paint6_linear_182_19568)"/>
</g>
</g>
<defs>
<filter id="filter0_dddddd_182_19568" x="0.851562" y="12.5449" width="258.775" height="259.148" filterUnits="userSpaceOnUse" color-interpolation-filters="sRGB">
<feFlood flood-opacity="0" result="BackgroundImageFix"/>
<feColorMatrix in="SourceAlpha" type="matrix" values="0 0 0 0 0 0 0 0 0 0 0 0 0 0 0 0 0 0 127 0" result="hardAlpha"/>
<feOffset dy="2.76726"/>
<feGaussianBlur stdDeviation="1.1069"/>
<feColorMatrix type="matrix" values="0 0 0 0 0 0 0 0 0 0 0 0 0 0 0 0 0 0 0.0196802 0"/>
<feBlend mode="normal" in2="BackgroundImageFix" result="effect1_dropShadow_182_19568"/>
<feColorMatrix in="SourceAlpha" type="matrix" values="0 0 0 0 0 0 0 0 0 0 0 0 0 0 0 0 0 0 127 0" result="hardAlpha"/>
<feOffset dy="6.6501"/>
<feGaussianBlur stdDeviation="2.66004"/>
<feColorMatrix type="matrix" values="0 0 0 0 0 0 0 0 0 0 0 0 0 0 0 0 0 0 0.0282725 0"/>
<feBlend mode="normal" in2="effect1_dropShadow_182_19568" result="effect2_dropShadow_182_19568"/>
<feColorMatrix in="SourceAlpha" type="matrix" values="0 0 0 0 0 0 0 0 0 0 0 0 0 0 0 0 0 0 127 0" result="hardAlpha"/>
<feOffset dy="12.5216"/>
<feGaussianBlur stdDeviation="5.00862"/>
<feColorMatrix type="matrix" values="0 0 0 0 0 0 0 0 0 0 0 0 0 0 0 0 0 0 0.035 0"/>
<feBlend mode="normal" in2="effect2_dropShadow_182_19568" result="effect3_dropShadow_182_19568"/>
<feColorMatrix in="SourceAlpha" type="matrix" values="0 0 0 0 0 0 0 0 0 0 0 0 0 0 0 0 0 0 127 0" result="hardAlpha"/>
<feOffset dy="22.3363"/>
<feGaussianBlur stdDeviation="8.93452"/>
<feColorMatrix type="matrix" values="0 0 0 0 0 0 0 0 0 0 0 0 0 0 0 0 0 0 0.0417275 0"/>
<feBlend mode="normal" in2="effect3_dropShadow_182_19568" result="effect4_dropShadow_182_19568"/>
<feColorMatrix in="SourceAlpha" type="matrix" values="0 0 0 0 0 0 0 0 0 0 0 0 0 0 0 0 0 0 127 0" result="hardAlpha"/>
<feOffset dy="41.7776"/>
<feGaussianBlur stdDeviation="16.711"/>
<feColorMatrix type="matrix" values="0 0 0 0 0 0 0 0 0 0 0 0 0 0 0 0 0 0 0.0503198 0"/>
<feBlend mode="normal" in2="effect4_dropShadow_182_19568" result="effect5_dropShadow_182_19568"/>
<feColorMatrix in="SourceAlpha" type="matrix" values="0 0 0 0 0 0 0 0 0 0 0 0 0 0 0 0 0 0 127 0" result="hardAlpha"/>
<feOffset dy="100"/>
<feGaussianBlur stdDeviation="40"/>
<feColorMatrix type="matrix" values="0 0 0 0 0 0 0 0 0 0 0 0 0 0 0 0 0 0 0.07 0"/>
<feBlend mode="normal" in2="effect5_dropShadow_182_19568" result="effect6_dropShadow_182_19568"/>
<feBlend mode="normal" in="SourceGraphic" in2="effect6_dropShadow_182_19568" result="shape"/>
</filter>
<filter id="filter1_di_182_19568" x="111.143" y="26.0617" width="47.1938" height="45.0967" filterUnits="userSpaceOnUse" color-interpolation-filters="sRGB">
<feFlood flood-opacity="0" result="BackgroundImageFix"/>
<feColorMatrix in="SourceAlpha" type="matrix" values="0 0 0 0 0 0 0 0 0 0 0 0 0 0 0 0 0 0 127 0" result="hardAlpha"/>
<feOffset dy="5"/>
<feGaussianBlur stdDeviation="5.72888"/>
<feColorMatrix type="matrix" values="0 0 0 0 0 0 0 0 0 0 0 0 0 0 0 0 0 0 0.1 0"/>
<feBlend mode="normal" in2="BackgroundImageFix" result="effect1_dropShadow_182_19568"/>
<feBlend mode="normal" in="SourceGraphic" in2="effect1_dropShadow_182_19568" result="shape"/>
<feColorMatrix in="SourceAlpha" type="matrix" values="0 0 0 0 0 0 0 0 0 0 0 0 0 0 0 0 0 0 127 0" result="hardAlpha"/>
<feOffset dy="-8.0518"/>
<feGaussianBlur stdDeviation="8.0518"/>
<feComposite in2="hardAlpha" operator="arithmetic" k2="-1" k3="1"/>
<feColorMatrix type="matrix" values="0 0 0 0 0.534917 0 0 0 0 0 0 0 0 0 0.545833 0 0 0 0.47 0"/>
<feBlend mode="normal" in2="shape" result="effect2_innerShadow_182_19568"/>
</filter>
<radialGradient id="paint0_radial_182_19568" cx="0" cy="0" r="1" gradientUnits="userSpaceOnUse" gradientTransform="translate(130.308 52.2233) rotate(30) scale(65.8105 33.9582)">
<stop offset="0.4735" stop-color="#8706C5"/>
<stop offset="1" stop-color="#880194"/>
</radialGradient>
<linearGradient id="paint1_linear_182_19568" x1="146.791" y1="23.6738" x2="119.947" y2="70.1691" gradientUnits="userSpaceOnUse">
<stop stop-color="#FED4FF"/>
<stop offset="0.3344" stop-color="#FB40FF"/>
<stop offset="0.5421" stop-color="#F8A9FF"/>
<stop offset="0.7106" stop-color="#E557FC"/>
<stop offset="0.8488" stop-color="#AE14E4"/>
<stop offset="0.9486" stop-color="#8F14C9"/>
<stop offset="1" stop-color="#6F08C0"/>
</linearGradient>
<radialGradient id="paint2_radial_182_19568" cx="0" cy="0" r="1" gradientUnits="userSpaceOnUse" gradientTransform="translate(144.59 28.1381) rotate(30) scale(104.766 41.5396)">
<stop stop-color="#FE76D8"/>
<stop offset="0.1727" stop-color="#F46AC5"/>
<stop offset="0.4933" stop-color="#DA4AD4"/>
<stop offset="0.9237" stop-color="#AE18B1"/>
<stop offset="1" stop-color="#8A0EA9"/>
</radialGradient>
<linearGradient id="paint3_linear_182_19568" x1="108.787" y1="29.4741" x2="160.771" y2="59.4871" gradientUnits="userSpaceOnUse">
<stop stop-color="#FF42D5"/>
<stop offset="0.5" stop-color="#EEB4FD"/>
<stop offset="0.9997" stop-color="#D23AEB"/>
</linearGradient>
<radialGradient id="paint4_radial_182_19568" cx="0" cy="0" r="1" gradientUnits="userSpaceOnUse" gradientTransform="translate(138.204 36.9701) rotate(30) scale(53.9103 24.4267)">
<stop stop-color="#C21FBB"/>
<stop offset="0.5942" stop-color="#B720C4"/>
<stop offset="0.808" stop-color="#A924CA"/>
<stop offset="0.9601" stop-color="#762BD6"/>
<stop offset="1" stop-color="#C22EDA"/>
</radialGradient>
<linearGradient id="paint5_linear_182_19568" x1="138.119" y1="38.6938" x2="142.866" y2="30.4722" gradientUnits="userSpaceOnUse">
<stop offset="0.000347002" stop-opacity="0"/>
<stop offset="1" stop-opacity="0.4"/>
</linearGradient>
<linearGradient id="paint6_linear_182_19568" x1="137.963" y1="33.5596" x2="124.604" y2="46.7313" gradientUnits="userSpaceOnUse">
<stop stop-color="#FFC8F3"/>
<stop offset="0.473958" stop-color="#FD92FF"/>
<stop offset="1" stop-color="#F473FF"/>
</linearGradient>
</defs>
</svg>
