<svg width="296" height="313" viewBox="0 0 296 313" fill="none" xmlns="http://www.w3.org/2000/svg">
<g filter="url(#filter0_dddddd_303_42)">
<path d="M143.797 83.2017L116.903 82.4725C115.27 82.4653 113.535 82.6335 111.874 83.0784C110.213 83.5234 108.608 84.176 107.216 85.0683L84.2893 99.1468C81.5549 100.844 80.1316 103.005 80.5952 104.735L84.5629 119.543L86.9547 128.469C87.4368 130.268 89.75 131.428 92.9479 131.461L119.842 132.19C119.981 132.153 120.068 132.204 120.207 132.167C120.364 132.199 120.571 132.143 120.797 132.157C120.936 132.12 121.093 132.152 121.231 132.115C121.526 132.11 121.822 132.105 122.168 132.012C122.237 131.994 122.306 131.975 122.463 132.007C122.828 131.984 123.243 131.873 123.607 131.849C123.746 131.812 123.815 131.793 123.953 131.756C124.161 131.701 124.368 131.645 124.576 131.589C124.714 131.552 124.853 131.515 124.922 131.497C125.337 131.385 125.683 131.293 126.08 131.112C126.218 131.075 126.287 131.057 126.426 131.02C126.564 130.982 126.772 130.927 126.891 130.82C126.961 130.802 127.03 130.783 127.099 130.765C127.357 130.622 127.703 130.529 127.962 130.385C128.1 130.348 128.22 130.242 128.358 130.205C128.755 130.025 129.202 129.757 129.58 129.507L152.507 115.428C152.834 115.266 153.074 115.054 153.383 114.823L153.452 114.804C153.692 114.591 153.95 114.448 154.19 114.236C154.259 114.217 154.259 114.217 154.309 114.129C154.549 113.917 154.72 113.723 154.89 113.529C154.959 113.51 154.941 113.441 155.01 113.423C155.18 113.229 155.351 113.034 155.521 112.84C155.521 112.84 155.521 112.84 155.591 112.822C155.591 112.822 155.591 112.822 155.641 112.734C155.812 112.54 155.913 112.365 155.996 112.12L156.047 112.032C156.148 111.857 156.231 111.612 156.332 111.437L156.313 111.368C156.345 111.211 156.378 111.054 156.41 110.897L156.391 110.828C156.423 110.671 156.455 110.514 156.4 110.306C156.4 110.306 156.4 110.306 156.381 110.237L156.363 110.168C156.326 110.029 156.358 109.872 156.321 109.734L153.985 101.015L150.017 86.2076C149.327 84.4641 147.014 83.304 143.797 83.2017Z" fill="url(#paint0_radial_303_42)"/>
<path opacity="0.3" d="M155.525 107.871C155.562 108.009 155.599 108.147 155.567 108.304L155.586 108.373C155.586 108.373 155.586 108.373 155.604 108.443C155.641 108.581 155.609 108.738 155.596 108.964L155.614 109.033C155.582 109.19 155.55 109.347 155.518 109.504L155.536 109.573C155.454 109.818 155.352 109.993 155.251 110.169L155.2 110.256C155.099 110.432 154.947 110.695 154.846 110.871C154.846 110.871 154.846 110.871 154.795 110.958C154.795 110.958 154.795 110.958 154.726 110.977C154.555 111.171 154.454 111.347 154.283 111.541C154.214 111.559 154.233 111.628 154.164 111.647C153.993 111.841 153.823 112.035 153.583 112.247C153.514 112.266 153.514 112.266 153.463 112.354C153.223 112.566 152.984 112.779 152.726 112.922L152.656 112.941C152.417 113.153 152.089 113.315 151.78 113.546L128.854 127.625C128.476 127.874 128.079 128.055 127.632 128.323C127.493 128.36 127.374 128.466 127.235 128.503C126.977 128.647 126.631 128.74 126.373 128.883C126.304 128.902 126.234 128.92 126.165 128.939C126.027 128.976 125.819 129.031 125.699 129.137C125.561 129.175 125.492 129.193 125.353 129.23C125.007 129.323 124.611 129.503 124.196 129.615C124.057 129.652 123.919 129.689 123.85 129.707C123.642 129.763 123.434 129.819 123.227 129.874C123.088 129.911 123.019 129.93 122.881 129.967C122.535 130.06 122.101 130.102 121.737 130.125C121.667 130.144 121.598 130.162 121.441 130.13C121.146 130.135 120.8 130.228 120.505 130.233C120.366 130.27 120.209 130.238 120.071 130.275C119.845 130.261 119.706 130.298 119.48 130.285C119.342 130.322 119.254 130.271 119.116 130.308L92.2215 129.579C89.0051 129.477 86.6918 128.317 86.2283 126.587L85.0788 122.297C85.0417 122.158 84.9355 122.038 84.8799 121.831L86.7154 128.681C87.1975 130.48 89.5107 131.64 92.7086 131.673L119.603 132.403C119.741 132.365 119.829 132.416 119.967 132.379C120.124 132.411 120.332 132.356 120.558 132.369C120.696 132.332 120.853 132.364 120.992 132.327C121.287 132.322 121.582 132.317 121.928 132.225C121.998 132.206 122.067 132.188 122.224 132.22C122.588 132.196 123.003 132.085 123.368 132.061C123.506 132.024 123.575 132.006 123.714 131.969C123.921 131.913 124.129 131.857 124.337 131.802C124.475 131.765 124.613 131.728 124.683 131.709C125.098 131.598 125.444 131.505 125.84 131.325C125.979 131.288 126.048 131.269 126.186 131.232C126.325 131.195 126.532 131.139 126.652 131.033C126.721 131.014 126.79 130.996 126.86 130.977C127.118 130.834 127.464 130.741 127.722 130.598C127.861 130.561 127.98 130.455 128.119 130.417C128.515 130.237 128.963 129.969 129.341 129.719L152.267 115.641C152.595 115.479 152.835 115.266 153.143 115.035L153.213 115.017C153.452 114.804 153.71 114.661 153.95 114.448C154.019 114.43 154.019 114.429 154.07 114.342C154.31 114.129 154.48 113.935 154.651 113.741C154.72 113.723 154.701 113.653 154.771 113.635C154.941 113.441 155.112 113.247 155.282 113.053C155.282 113.053 155.282 113.053 155.351 113.034C155.351 113.034 155.351 113.034 155.402 112.947C155.572 112.753 155.674 112.577 155.757 112.332L155.807 112.245C155.908 112.069 155.991 111.825 156.093 111.649L156.074 111.58C156.106 111.423 156.138 111.266 156.17 111.109L156.152 111.04C156.184 110.883 156.216 110.726 156.16 110.518C156.16 110.518 156.16 110.518 156.142 110.449L156.123 110.38C156.086 110.242 156.118 110.085 156.081 109.946L154.246 103.096C154.283 103.234 154.339 103.442 154.306 103.599L155.456 107.889L155.525 107.871Z" fill="#E326E7"/>
<path opacity="0.3" d="M150.083 106.658L127.156 120.737C125.745 121.56 124.159 122.282 122.498 122.727C120.838 123.172 119.121 123.409 117.469 123.333L90.5749 122.604C87.6538 122.496 85.4654 121.525 84.7622 120.008L85.3184 122.084C86.0217 123.601 88.21 124.572 91.1311 124.679L118.025 125.409C119.659 125.416 121.394 125.248 123.054 124.803C124.715 124.358 126.32 123.705 127.713 122.813L150.639 108.734C153.115 107.181 154.525 105.246 154.375 103.58L153.819 101.504C153.987 103.239 152.578 105.174 150.083 106.658Z" fill="#A35C09"/>
<path d="M111.893 83.1473C110.232 83.5923 108.627 84.2448 107.234 85.1371L84.3079 99.2157C81.5735 100.912 80.1502 103.074 80.6138 104.804L84.5815 119.612C85.0636 121.411 87.3768 122.571 90.5747 122.604L117.469 123.333C119.102 123.34 120.837 123.172 122.498 122.727C124.159 122.282 125.764 121.629 127.156 120.737L150.083 106.659C152.817 104.962 154.24 102.801 153.777 101.071L149.809 86.2629C149.327 84.4639 147.014 83.3036 143.816 83.2706L116.922 82.5414C115.27 82.4649 113.553 82.7023 111.893 83.1473Z" fill="url(#paint1_linear_303_42)"/>
<path d="M142.76 83.4795L115.866 82.7503C114.597 82.7195 113.226 82.8642 111.912 83.2165C110.597 83.5687 109.338 84.1286 108.254 84.7898L85.3276 98.8684C83.1604 100.191 82.0595 101.895 82.4303 103.279L86.3981 118.087C86.7689 119.47 88.5743 120.396 91.1123 120.457L118.007 121.186C119.276 121.217 120.646 121.073 121.961 120.72C123.275 120.368 124.534 119.808 125.618 119.147L148.545 105.068C150.712 103.746 151.813 102.042 151.442 100.658L147.474 85.8502C147.103 84.4663 145.229 83.5596 142.76 83.4795Z" fill="url(#paint2_radial_303_42)"/>
<path opacity="0.4" d="M121.46 118.852C120.56 119.093 119.554 119.214 118.668 119.229L91.7741 118.5C89.9837 118.461 88.7046 117.839 88.4265 116.801L84.4587 101.993C84.1992 101.025 84.9962 99.847 86.5085 98.8484L109.435 84.7699C110.21 84.3398 111.072 83.9604 112.041 83.7008C113.01 83.4412 113.946 83.3386 114.832 83.3237L141.726 84.0529C143.517 84.0923 144.796 84.7137 145.074 85.7516L149.042 100.56C149.301 101.528 148.504 102.706 146.992 103.704L124.065 117.783C123.291 118.213 122.359 118.611 121.46 118.852ZM111.985 83.4932C111.016 83.7528 110.016 84.1693 109.259 84.6686L86.3329 98.7472C84.7514 99.7643 83.9039 101.03 84.182 102.068L88.1498 116.875C88.4279 117.913 89.7945 118.585 91.6727 118.676L118.567 119.405C119.541 119.44 120.547 119.319 121.515 119.06C122.484 118.8 123.485 118.384 124.241 117.884L147.168 103.806C148.749 102.789 149.597 101.523 149.318 100.485L145.351 85.6774C145.073 84.6395 143.706 83.9674 141.828 83.8774L114.934 83.1482C113.96 83.1125 112.954 83.2336 111.985 83.4932Z" fill="white"/>
<path opacity="0.4" d="M120.588 115.6L94.6678 114.906L90.8299 100.583L112.931 87.0222L138.851 87.7157L142.689 102.039L120.588 115.6ZM112.857 86.7454L90.4974 100.45L90.4283 100.468L94.3219 114.999L120.625 115.738L142.985 102.034L143.054 102.016L139.16 87.4845L112.857 86.7454Z" fill="white"/>
<path d="M94.9777 100.287L113.45 88.9599L135.111 89.5338L138.3 101.435L119.828 112.763L98.1667 112.189L94.9777 100.287ZM113.116 87.7144L92.735 100.221L96.2578 113.368L120.162 114.009L140.543 101.502L137.02 88.3549L113.116 87.7144Z" fill="url(#paint3_linear_303_42)"/>
<path d="M113.431 88.8907L94.9778 100.288L98.1668 112.189L119.828 112.763L138.3 101.435L135.111 89.5338L113.431 88.8907Z" fill="url(#paint4_radial_303_42)"/>
<path d="M113.431 88.8907L94.9778 100.288L95.2559 101.325L113.71 89.9287L135.389 90.5718L135.111 89.5338L113.431 88.8907Z" fill="url(#paint5_linear_303_42)"/>
<g filter="url(#filter1_di_303_42)">
<path d="M120.254 98.8832C121.758 98.8141 122.911 98.9328 123.652 99.234C124.394 99.5352 124.91 100.176 125.174 101.162L125.281 101.56C125.814 103.55 123.863 105.073 119.741 106.401L120.047 107.542C120.098 107.733 119.987 107.855 119.719 107.926L118.057 108.372C117.789 108.444 117.632 108.393 117.581 108.203L117.285 107.096C115.48 107.542 113.486 107.928 111.282 108.278C110.952 108.33 110.758 108.252 110.702 108.044L110.248 106.348C110.192 106.141 110.352 105.986 110.7 105.893L118.821 103.717C119.973 103.408 120.329 103.128 120.204 102.661L120.162 102.505C120.033 102.02 119.499 101.959 118.017 102.005L113.119 102.279C110.548 102.43 109.228 101.799 108.686 99.7771L108.593 99.432C108.056 97.4251 109.784 95.9422 113.95 94.659L113.648 93.5336C113.597 93.3433 113.708 93.2212 113.976 93.1494L115.638 92.7041C115.906 92.6322 116.063 92.6827 116.114 92.873L116.406 93.9629C117.777 93.6139 119.449 93.3145 121.412 93.0293C121.748 92.9939 121.932 93.0387 121.973 93.1945L122.46 95.0095C122.511 95.1998 122.381 95.346 122.03 95.4401L115.088 97.3002C113.909 97.6161 113.558 97.9141 113.702 98.4504L113.729 98.5519C113.84 98.967 114.379 99.1564 115.346 99.12L120.254 98.8832Z" fill="url(#paint6_linear_303_42)"/>
</g>
</g>
<g filter="url(#filter2_dddddd_303_42)">
<path d="M195.612 18.3319L156.769 12.4835C154.411 12.1835 151.963 12.3216 149.644 12.9429C147.326 13.5641 145.137 14.6686 143.244 16.1075L112.53 40.5936C108.868 43.5422 107.165 47.6225 108.123 51.1969L116.251 81.5314L118.788 90.9989C119.771 94.6699 123.286 97.3521 127.906 97.978L166.748 103.827C169.107 104.127 171.555 103.988 173.873 103.367C173.97 103.341 173.97 103.341 174.066 103.315C174.549 103.186 175.033 103.056 175.586 102.804C175.683 102.778 175.876 102.727 175.947 102.604C176.333 102.501 176.694 102.301 177.151 102.075C177.344 102.023 177.512 101.874 177.705 101.823C178.065 101.622 178.329 101.448 178.69 101.248C178.857 101.1 179.05 101.048 179.121 100.925C179.218 100.9 179.288 100.777 179.385 100.751C179.745 100.551 180.08 100.254 180.344 100.08L211.059 75.5939C211.393 75.2971 211.728 75.0003 211.966 74.7294C212.062 74.7035 212.133 74.5811 212.133 74.5811C212.371 74.3103 212.706 74.0134 212.944 73.7425C213.041 73.7167 213.015 73.62 213.111 73.5941C213.349 73.3232 213.587 73.0525 213.729 72.8075L213.799 72.6849C214.038 72.4141 214.25 72.0465 214.365 71.7049C214.436 71.5824 214.436 71.5825 214.507 71.46C214.622 71.1184 214.86 70.8475 214.976 70.5059C214.976 70.5059 214.95 70.4094 215.047 70.3835C215.162 70.042 215.304 69.7969 215.323 69.4812C215.297 69.3846 215.393 69.3587 215.368 69.2621C215.483 68.9205 215.502 68.6047 215.521 68.289C215.495 68.1924 215.592 68.1665 215.566 68.0699C215.585 67.7542 215.604 67.4387 215.622 67.123C215.641 66.8073 215.564 66.5172 215.583 66.2015C215.557 66.1049 215.531 66.0084 215.531 66.0084C215.453 65.7186 215.472 65.403 215.395 65.1132L212.858 55.6456L204.73 25.3112C203.746 21.6401 200.232 18.9577 195.612 18.3319Z" fill="url(#paint7_radial_303_42)"/>
<path opacity="0.3" d="M214.832 63.3999C214.91 63.6897 214.891 64.0054 214.872 64.3211C214.853 64.6368 214.834 64.9526 214.815 65.2683C214.841 65.3649 214.841 65.3649 214.77 65.4874C214.751 65.8031 214.636 66.1446 214.617 66.4603C214.643 66.5569 214.546 66.583 214.572 66.6796C214.456 67.0212 214.437 67.3367 214.296 67.5817C214.296 67.5817 214.322 67.6784 214.225 67.7043C214.11 68.0459 213.994 68.3875 213.756 68.6584C213.685 68.7809 213.685 68.7808 213.615 68.9033C213.402 69.2708 213.261 69.5158 213.049 69.8833L212.978 70.0056C212.74 70.2765 212.502 70.5475 212.361 70.7925C212.264 70.8183 212.29 70.915 212.193 70.9409C211.955 71.2118 211.621 71.5084 211.383 71.7793C211.286 71.8052 211.312 71.9019 211.215 71.9278C210.88 72.2246 210.643 72.4952 210.308 72.792L179.594 97.2783C179.259 97.5751 178.995 97.7493 178.634 97.9494C178.538 97.9753 178.467 98.0979 178.37 98.1238C178.203 98.2722 178.01 98.3239 177.939 98.4464C177.578 98.6465 177.315 98.8208 176.954 99.021C176.761 99.0727 176.593 99.221 176.4 99.2728C176.04 99.4729 175.653 99.5764 175.196 99.8025C175.099 99.8283 174.906 99.8802 174.836 100.003C174.353 100.132 173.895 100.358 173.316 100.514C173.219 100.539 173.219 100.539 173.123 100.565C170.804 101.187 168.356 101.325 165.998 101.025L127.155 95.1763C122.509 94.4539 118.995 91.7715 118.037 88.197L118.814 91.0952C119.797 94.7663 123.312 97.4487 127.932 98.0745L166.774 103.923C169.133 104.223 171.581 104.085 173.899 103.464C173.996 103.438 173.996 103.438 174.092 103.412C174.575 103.282 175.058 103.153 175.612 102.901C175.709 102.875 175.902 102.823 175.973 102.701C176.359 102.597 176.72 102.397 177.177 102.171C177.37 102.119 177.538 101.971 177.731 101.919C178.091 101.719 178.355 101.545 178.716 101.345C178.883 101.196 179.076 101.144 179.147 101.022C179.243 100.996 179.314 100.874 179.411 100.848C179.771 100.647 180.106 100.351 180.37 100.177L211.084 75.6902C211.419 75.3935 211.754 75.0969 211.992 74.826C212.088 74.8001 212.159 74.6775 212.159 74.6775C212.397 74.4066 212.732 74.11 212.97 73.8391C213.067 73.8132 213.041 73.7166 213.137 73.6907C213.375 73.4198 213.613 73.1488 213.755 72.9038L213.825 72.7815C214.063 72.5106 214.276 72.1431 214.391 71.8015C214.462 71.679 214.462 71.6791 214.533 71.5566C214.648 71.215 214.886 70.9441 215.002 70.6025C215.002 70.6025 214.976 70.5058 215.073 70.4799C215.188 70.1383 215.33 69.8935 215.349 69.5778C215.323 69.4812 215.419 69.4551 215.393 69.3585C215.509 69.0169 215.528 68.7013 215.547 68.3856C215.521 68.289 215.618 68.2631 215.592 68.1665C215.611 67.8508 215.629 67.535 215.648 67.2193C215.667 66.9036 215.59 66.6138 215.609 66.2981C215.583 66.2015 215.557 66.105 215.557 66.105C215.479 65.8151 215.498 65.4993 215.42 65.2095L214.644 62.3113C214.722 62.6011 214.799 62.891 214.78 63.2068C214.78 63.2068 214.806 63.3033 214.832 63.3999Z" fill="black"/>
<path opacity="0.3" d="M208.451 66.2488L177.737 90.7349C175.844 92.1739 173.655 93.2781 171.336 93.8993C169.018 94.5206 166.57 94.6589 164.212 94.3589L125.369 88.5106C120.846 87.8588 117.357 85.273 116.303 81.7244L117.079 84.6226C118.134 88.1712 121.526 90.7829 126.146 91.4088L164.988 97.2571C167.346 97.5571 169.794 97.4188 172.113 96.7975C174.432 96.1763 176.621 95.0721 178.513 93.6331L209.228 69.1471C212.89 66.1984 214.592 62.1182 213.634 58.5437L212.858 55.6455C213.841 59.3166 212.113 63.3002 208.451 66.2488Z" fill="black"/>
<path d="M149.644 12.9429C147.326 13.5641 145.137 14.6686 143.244 16.1075L112.53 40.5936C108.868 43.5422 107.165 47.6225 108.123 51.1969L116.251 81.5314C117.235 85.2024 120.749 87.8848 125.369 88.5107L164.212 94.359C166.57 94.659 169.018 94.5207 171.336 93.8994C173.655 93.2782 175.844 92.174 177.737 90.735L208.451 66.249C212.113 63.3003 213.816 59.2201 212.858 55.6456L204.73 25.3112C203.746 21.6401 200.232 18.9577 195.612 18.3319L156.769 12.4835C154.385 12.0869 151.963 12.3216 149.644 12.9429Z" fill="url(#paint8_linear_303_42)"/>
<path d="M194.396 19.5897L155.553 13.7413C153.73 13.5051 151.791 13.6107 149.955 14.1025C148.119 14.5943 146.387 15.4725 144.926 16.5888L114.212 41.0748C111.316 43.4041 109.986 46.5562 110.762 49.4544L118.89 79.7889C119.667 82.6871 122.395 84.7518 126.068 85.3208L164.91 91.1692C166.734 91.4054 168.673 91.3001 170.508 90.8082C172.344 90.3164 174.076 89.438 175.537 88.3217L206.251 63.8357C209.148 61.5064 210.477 58.3545 209.701 55.4563L201.573 25.1219C200.796 22.2237 198.069 20.1587 194.396 19.5897Z" fill="url(#paint9_radial_303_42)"/>
<path opacity="0.4" d="M169.654 87.62C168.398 87.9565 166.968 88.0291 165.679 87.8566L126.837 82.0083C124.259 81.6635 122.292 80.1198 121.749 78.0911L113.621 47.7564C113.077 45.7276 114.035 43.5039 116.068 41.82L146.783 17.3337C147.813 16.54 148.991 15.9139 150.343 15.5515C151.696 15.1891 153.029 15.1422 154.318 15.3146L193.161 21.1632C195.738 21.508 197.705 23.0517 198.248 25.0805L206.377 55.4151C206.92 57.4439 205.963 59.6675 203.929 61.3515L173.215 85.8375C172.185 86.6312 170.91 87.2835 169.654 87.62ZM150.291 15.3581C148.939 15.7205 147.568 16.3986 146.538 17.1923L115.823 41.6783C113.693 43.3882 112.691 45.8312 113.26 47.9566L121.388 78.291C121.958 80.4164 124.047 82.0311 126.747 82.4466L165.59 88.295C167.001 88.5381 168.405 88.369 169.758 88.0066C171.11 87.6442 172.482 86.966 173.511 86.1724L204.226 61.6863C206.356 59.9765 207.358 57.5334 206.789 55.4081L198.661 25.0736C198.091 22.9483 196.002 21.3335 193.302 20.918L154.46 15.0696C153.074 14.9231 151.644 14.9957 150.291 15.3581Z" fill="white"/>
<path opacity="0.4" d="M167.868 80.9541L130.436 75.3487L122.593 46.0768L152.207 22.507L189.638 28.1122L197.481 57.3841L167.868 80.9541ZM152.077 22.024L122.129 45.8907L122.058 46.0131L130.005 75.6713L168.094 81.4113L198.042 57.5445L198.113 57.4219L190.166 27.7637L152.077 22.024Z" fill="white"/>
<path d="M128.592 46.4369L153.346 26.7575L184.624 31.4232L191.173 55.8648L189.905 56.9293L166.444 75.6406L135.167 70.9749L128.592 46.4369ZM152.673 24.2459L125.357 45.9576L132.579 72.9108L167.091 78.0558L194.407 56.3439L187.185 29.3907L152.673 24.2459Z" fill="url(#paint10_linear_303_42)"/>
<path d="M153.346 26.7575L128.592 46.437L135.141 70.8785L166.444 75.6407L189.905 56.9293L191.173 55.8648L184.624 31.4232L153.346 26.7575Z" fill="url(#paint11_radial_303_42)"/>
<path d="M153.346 26.7575L128.592 46.437L128.98 47.8861L153.734 28.2066L185.012 32.8723L184.624 31.4232L153.346 26.7575Z" fill="url(#paint12_linear_303_42)"/>
<path d="M176.73 36.9608C175.581 37.4344 174.473 37.9957 173.477 38.6552C172.457 39.3412 171.545 40.1094 170.766 40.9389C170.016 41.7482 169.337 42.5849 168.733 43.443C168.12 44.2835 167.552 45.1216 166.942 45.9301C166.322 46.7482 165.724 47.5939 165.107 48.3721C164.49 49.1504 163.812 49.8781 163.04 50.4949C162.272 51.1114 161.379 51.6377 160.404 52.0469C158.4 52.8983 156.187 53.4879 154.182 53.3783C153.188 53.3269 152.264 53.0842 151.585 52.6438C150.907 52.2033 150.457 51.5665 150.484 50.8948C150.501 50.2107 150.999 49.4383 151.716 48.7323C152.435 48.0176 153.312 47.3831 154.298 46.7223C154.788 46.3992 155.282 46.0743 155.769 45.7301C155.863 45.6619 155.954 45.5857 156.047 45.5153C156.245 45.5607 156.443 45.604 156.641 45.6502C157.6 45.8858 158.537 46.1468 159.321 46.4882C160.104 46.8205 160.659 47.2697 160.724 47.7722C161.159 49.3948 158.339 50.6282 156.673 51.0375C155.007 51.4468 153.111 51.2674 152.334 50.1657C152.342 50.6019 152.515 51.0062 152.834 51.3361C153.18 51.6877 153.664 51.95 154.237 52.0978C155.4 52.4056 156.773 52.3043 158.024 52.0109C159.24 51.7366 160.628 51.1767 161.614 50.3208C162.138 49.8807 162.538 49.3765 162.784 48.8462C163.04 48.287 163.093 47.7149 162.937 47.1912C162.6 46.141 161.549 45.5225 160.575 45.1385C159.579 44.7471 158.544 44.5025 157.515 44.2813C157.498 44.2775 157.481 44.2748 157.464 44.2716C158.178 43.5188 159.342 42.1804 159.814 40.5819C158.349 41.3907 156.665 42.142 154.995 42.4997C152.92 42.9471 150.822 43.1851 148.764 43.2064C149.989 43.8448 152.286 44.6796 154.456 45.1601C154.115 45.4588 153.761 45.7572 153.393 46.051C152.956 46.3978 152.492 46.7199 152.005 47.0775C151.521 47.4358 151.067 47.814 150.645 48.2094C150.194 48.6162 149.807 49.0548 149.494 49.5144C149.151 50.0041 148.938 50.522 148.868 51.0363C148.807 51.562 148.905 52.0695 149.155 52.5231C149.39 52.9658 149.734 53.3622 150.172 53.6963C151.049 54.3645 152.255 54.7607 153.539 54.9216C154.822 55.0826 156.206 54.9883 157.534 54.743C158.851 54.4852 160.14 54.0779 161.352 53.5369C162.576 52.9939 163.75 52.288 164.669 51.4576C165.618 50.6399 166.288 49.7371 166.88 48.875C167.463 48.0026 167.958 47.1671 168.498 46.3244C169.03 45.4654 169.533 44.6188 170.082 43.797C171.173 42.1615 172.516 40.5984 174.392 39.4671C175.539 38.7646 176.842 38.2392 178.203 37.8717C178.158 37.9345 178.105 37.9982 178.057 38.0622C177.567 38.7349 177.139 39.4244 176.779 40.125C176.419 40.8231 176.129 41.5306 175.912 42.2413C175.697 42.9507 175.551 43.6364 175.408 44.3115C175.126 45.6584 174.861 46.9675 174.399 48.2515C173.937 49.5356 173.289 50.785 172.35 51.9466C171.403 53.1129 170.191 54.1771 168.778 55.0832C167.361 56.0125 165.785 56.8254 164.153 57.6252C163.175 58.1075 162.166 58.5782 161.163 59.0972L160.313 59.119C160.006 59.1299 159.696 59.1621 159.388 59.1835C159.069 59.2059 158.795 59.2338 158.512 59.2609L157.67 59.3282C156.565 59.4113 155.47 59.4257 154.396 59.3714C153.342 59.3098 152.331 59.1633 151.433 58.8795C150.535 58.5904 149.75 58.171 149.117 57.6422C148.474 57.1103 147.982 56.4683 147.595 55.7752C147.4 55.4294 147.241 55.0656 147.091 54.6981C146.951 54.3423 146.813 53.9166 146.637 53.5241C146.289 52.7305 145.851 51.9526 145.23 51.2287C144.597 50.5185 143.769 49.8429 142.572 49.4226C141.394 48.9923 139.804 48.9195 138.324 49.2472C136.844 49.5749 135.365 50.47 134.543 51.5263C134.134 52.0455 133.87 52.6036 133.771 53.1618C133.672 53.7199 133.739 54.2648 133.968 54.7582C134.425 55.7157 135.422 56.3808 136.545 56.7384C137.138 56.9235 137.637 57.0245 138.155 57.1549C138.673 57.2853 139.183 57.4116 139.686 57.5443C140.054 57.6429 140.405 57.7471 140.743 57.8578L138.471 58.4038L139.101 59.9018L144.648 57.9775C143.347 57.3615 141.869 56.7544 140.54 56.3538L139.028 55.9215C138.538 55.7711 137.999 55.6284 137.632 55.47C136.841 55.1452 136.278 54.6437 136.136 54.0531C136.06 53.7763 136.074 53.4789 136.178 53.1825C136.281 52.8862 136.471 52.5984 136.734 52.3402C136.985 52.0973 137.295 51.8875 137.644 51.7254C137.82 51.645 138.004 51.5762 138.192 51.5197C138.283 51.487 138.385 51.4679 138.481 51.4422C138.577 51.4164 138.685 51.3703 138.786 51.3414C139.607 51.0785 140.438 51.0278 141.253 51.1966C142.067 51.3656 142.83 51.7593 143.439 52.2879C144.061 52.8128 144.558 53.4558 144.923 54.1567C145.11 54.5104 145.26 54.8574 145.431 55.2642C145.609 55.6556 145.798 56.0438 146.028 56.4194C146.471 57.191 147.054 57.9013 147.765 58.5342C148.507 59.1751 149.428 59.6907 150.483 60.0564C151.534 60.425 152.704 60.6254 153.883 60.7252C155.056 60.8085 156.255 60.8154 157.468 60.7457L158.364 60.6893L158.49 60.6795C156.824 61.8653 155.805 63.1533 155.364 65.1415L168.497 61.6225L167.87 60.9912C167.764 60.8849 167.648 60.7852 167.522 60.6928C167.411 60.6098 167.297 60.532 167.179 60.4607C166.949 60.3169 166.703 60.1856 166.444 60.0676C165.941 59.8364 165.397 59.6482 164.82 59.5058C164.509 59.4258 164.19 59.3616 163.868 59.3069C164.245 59.12 164.623 58.9325 165.004 58.7445C166.655 57.9266 168.335 57.0578 169.885 56.0312C171.433 55.0145 172.87 53.8152 173.945 52.4982C175.037 51.1854 175.822 49.7847 176.367 48.396C176.924 47.0063 177.256 45.6259 177.591 44.2911C177.76 43.6237 177.93 42.9667 178.147 42.336C178.352 41.7948 178.56 41.2531 178.822 40.7189C179.802 38.6768 181.421 36.7514 183.536 35.1121C181.116 35.5957 178.59 36.2148 176.73 36.9608ZM153.847 43.5848L154.865 43.355L156.682 42.9237C156.401 43.2651 156.1 43.6052 155.772 43.9386L155.769 43.9394L155.747 43.9354C155.071 43.9012 154.429 43.7827 153.847 43.5848ZM164.746 61.2959L158.354 62.9999C158.835 62.3718 159.51 61.7836 160.338 61.2483C160.679 61.0278 161.037 60.812 161.405 60.6017C162.243 60.6407 163.05 60.7635 163.803 60.9667C164.135 61.0547 164.45 61.1649 164.746 61.2959Z" fill="url(#paint13_linear_303_42)"/>
<g opacity="0.25">
<path opacity="0.25" d="M163.804 60.9666C163.05 60.7634 162.244 60.6407 161.405 60.6016C161.405 60.6016 162.53 60.9835 163.294 61.6829L164.745 61.2941C164.449 61.1637 164.135 61.0542 163.804 60.9666Z" fill="white"/>
</g>
<g opacity="0.25">
<path opacity="0.25" d="M160.723 47.7721C160.658 47.2697 160.103 46.8205 159.32 46.4869C158.536 46.1455 157.599 45.8845 156.64 45.6489C156.446 45.6017 156.244 45.5594 156.046 45.514C156.046 45.514 158.825 46.5217 159.405 47.7627C159.919 48.8623 158.935 50.38 156.632 51.0464L156.67 51.0363C158.338 50.6281 161.158 49.3947 160.723 47.7721Z" fill="white"/>
</g>
<g opacity="0.25">
<path opacity="0.25" d="M156.68 42.923L156.039 43.0754C155.995 43.36 155.908 43.6461 155.778 43.928C156.104 43.5974 156.402 43.261 156.68 42.923Z" fill="white"/>
</g>
<g opacity="0.25">
<path opacity="0.25" d="M164.667 51.4587C163.747 52.2892 162.574 52.9958 161.349 53.5381C160.137 54.079 158.848 54.4863 157.532 54.7441C156.204 54.9894 154.827 55.0867 153.536 54.9228C152.246 54.7589 151.047 54.3646 150.17 53.6975C149.943 53.5241 149.741 53.3335 149.567 53.1279L149.572 53.1348C150.614 54.6617 153.32 56.4093 157.614 55.4472C162.645 54.3199 164.641 52.2657 166.612 49.2548L166.607 49.2562C166.08 50.0008 165.478 50.7603 164.667 51.4587Z" fill="white"/>
</g>
</g>
<g filter="url(#filter3_dddddd_303_42)">
<path d="M143.797 83.2017L116.903 82.4725C115.27 82.4653 113.535 82.6335 111.874 83.0784C110.213 83.5234 108.608 84.176 107.216 85.0683L84.2893 99.1468C81.5549 100.844 80.1316 103.005 80.5952 104.735L84.5629 119.543L86.9547 128.469C87.4368 130.268 89.75 131.428 92.9479 131.461L119.842 132.19C119.981 132.153 120.068 132.204 120.207 132.167C120.364 132.199 120.571 132.143 120.797 132.157C120.936 132.12 121.093 132.152 121.231 132.115C121.526 132.11 121.822 132.105 122.168 132.012C122.237 131.994 122.306 131.975 122.463 132.007C122.828 131.984 123.243 131.873 123.607 131.849C123.746 131.812 123.815 131.793 123.953 131.756C124.161 131.701 124.368 131.645 124.576 131.589C124.714 131.552 124.853 131.515 124.922 131.497C125.337 131.385 125.683 131.293 126.08 131.112C126.218 131.075 126.287 131.057 126.426 131.02C126.564 130.982 126.772 130.927 126.891 130.82C126.961 130.802 127.03 130.783 127.099 130.765C127.357 130.622 127.703 130.529 127.962 130.385C128.1 130.348 128.22 130.242 128.358 130.205C128.755 130.025 129.202 129.757 129.58 129.507L152.507 115.428C152.834 115.266 153.074 115.054 153.383 114.823L153.452 114.804C153.692 114.591 153.95 114.448 154.19 114.236C154.259 114.217 154.259 114.217 154.309 114.129C154.549 113.917 154.72 113.723 154.89 113.529C154.959 113.51 154.941 113.441 155.01 113.423C155.18 113.229 155.351 113.034 155.521 112.84C155.521 112.84 155.521 112.84 155.591 112.822C155.591 112.822 155.591 112.822 155.641 112.734C155.812 112.54 155.913 112.365 155.996 112.12L156.047 112.032C156.148 111.857 156.231 111.612 156.332 111.437L156.313 111.368C156.345 111.211 156.378 111.054 156.41 110.897L156.391 110.828C156.423 110.671 156.455 110.514 156.4 110.306C156.4 110.306 156.4 110.306 156.381 110.237L156.363 110.168C156.326 110.029 156.358 109.872 156.321 109.734L153.985 101.015L150.017 86.2076C149.327 84.4641 147.014 83.304 143.797 83.2017Z" fill="url(#paint14_radial_303_42)"/>
<path opacity="0.3" d="M155.525 107.871C155.562 108.009 155.599 108.147 155.567 108.304L155.586 108.373C155.586 108.373 155.586 108.373 155.604 108.443C155.641 108.581 155.609 108.738 155.596 108.964L155.614 109.033C155.582 109.19 155.55 109.347 155.518 109.504L155.536 109.573C155.454 109.818 155.352 109.993 155.251 110.169L155.2 110.256C155.099 110.432 154.947 110.695 154.846 110.871C154.846 110.871 154.846 110.871 154.795 110.958C154.795 110.958 154.795 110.958 154.726 110.977C154.555 111.171 154.454 111.347 154.283 111.541C154.214 111.559 154.233 111.628 154.164 111.647C153.993 111.841 153.823 112.035 153.583 112.247C153.514 112.266 153.514 112.266 153.463 112.354C153.223 112.566 152.984 112.779 152.726 112.922L152.656 112.941C152.417 113.153 152.089 113.315 151.78 113.546L128.854 127.625C128.476 127.874 128.079 128.055 127.632 128.323C127.493 128.36 127.374 128.466 127.235 128.503C126.977 128.647 126.631 128.74 126.373 128.883C126.304 128.902 126.234 128.92 126.165 128.939C126.027 128.976 125.819 129.031 125.699 129.137C125.561 129.175 125.492 129.193 125.353 129.23C125.007 129.323 124.611 129.503 124.196 129.615C124.057 129.652 123.919 129.689 123.85 129.707C123.642 129.763 123.434 129.819 123.227 129.874C123.088 129.911 123.019 129.93 122.881 129.967C122.535 130.06 122.101 130.102 121.737 130.125C121.667 130.144 121.598 130.162 121.441 130.13C121.146 130.135 120.8 130.228 120.505 130.233C120.366 130.27 120.209 130.238 120.071 130.275C119.845 130.261 119.706 130.298 119.48 130.285C119.342 130.322 119.254 130.271 119.116 130.308L92.2215 129.579C89.0051 129.477 86.6918 128.317 86.2283 126.587L85.0788 122.297C85.0417 122.158 84.9355 122.038 84.8799 121.831L86.7154 128.681C87.1975 130.48 89.5107 131.64 92.7086 131.673L119.603 132.403C119.741 132.365 119.829 132.416 119.967 132.379C120.124 132.411 120.332 132.356 120.558 132.369C120.696 132.332 120.853 132.364 120.992 132.327C121.287 132.322 121.582 132.317 121.928 132.225C121.998 132.206 122.067 132.188 122.224 132.22C122.588 132.196 123.003 132.085 123.368 132.061C123.506 132.024 123.575 132.006 123.714 131.969C123.921 131.913 124.129 131.857 124.337 131.802C124.475 131.765 124.613 131.728 124.683 131.709C125.098 131.598 125.444 131.505 125.84 131.325C125.979 131.288 126.048 131.269 126.186 131.232C126.325 131.195 126.532 131.139 126.652 131.033C126.721 131.014 126.79 130.996 126.86 130.977C127.118 130.834 127.464 130.741 127.722 130.598C127.861 130.561 127.98 130.455 128.119 130.417C128.515 130.237 128.963 129.969 129.341 129.719L152.267 115.641C152.595 115.479 152.835 115.266 153.143 115.035L153.213 115.017C153.452 114.804 153.71 114.661 153.95 114.448C154.019 114.43 154.019 114.429 154.07 114.342C154.31 114.129 154.48 113.935 154.651 113.741C154.72 113.723 154.701 113.653 154.771 113.635C154.941 113.441 155.112 113.247 155.282 113.053C155.282 113.053 155.282 113.053 155.351 113.034C155.351 113.034 155.351 113.034 155.402 112.947C155.572 112.753 155.674 112.577 155.757 112.332L155.807 112.245C155.908 112.069 155.991 111.825 156.093 111.649L156.074 111.58C156.106 111.423 156.138 111.266 156.17 111.109L156.152 111.04C156.184 110.883 156.216 110.726 156.16 110.518C156.16 110.518 156.16 110.518 156.142 110.449L156.123 110.38C156.086 110.242 156.118 110.085 156.081 109.946L154.246 103.096C154.283 103.234 154.339 103.442 154.306 103.599L155.456 107.889L155.525 107.871Z" fill="#E326E7"/>
<path opacity="0.3" d="M150.083 106.658L127.156 120.737C125.745 121.56 124.159 122.282 122.498 122.727C120.838 123.172 119.121 123.409 117.469 123.333L90.5749 122.604C87.6538 122.496 85.4654 121.525 84.7622 120.008L85.3184 122.084C86.0217 123.601 88.21 124.572 91.1311 124.679L118.025 125.409C119.659 125.416 121.394 125.248 123.054 124.803C124.715 124.358 126.32 123.705 127.713 122.813L150.639 108.734C153.115 107.181 154.525 105.246 154.375 103.58L153.819 101.504C153.987 103.239 152.578 105.174 150.083 106.658Z" fill="#A35C09"/>
<path d="M111.893 83.1473C110.232 83.5923 108.627 84.2448 107.234 85.1371L84.3079 99.2157C81.5735 100.912 80.1502 103.074 80.6138 104.804L84.5815 119.612C85.0636 121.411 87.3768 122.571 90.5747 122.604L117.469 123.333C119.102 123.34 120.837 123.172 122.498 122.727C124.159 122.282 125.764 121.629 127.156 120.737L150.083 106.659C152.817 104.962 154.24 102.801 153.777 101.071L149.809 86.2629C149.327 84.4639 147.014 83.3036 143.816 83.2706L116.922 82.5414C115.27 82.4649 113.553 82.7023 111.893 83.1473Z" fill="url(#paint15_linear_303_42)"/>
<path d="M142.76 83.4795L115.866 82.7503C114.597 82.7195 113.226 82.8642 111.912 83.2165C110.597 83.5687 109.338 84.1286 108.254 84.7898L85.3276 98.8684C83.1604 100.191 82.0595 101.895 82.4303 103.279L86.3981 118.087C86.7689 119.47 88.5743 120.396 91.1123 120.457L118.007 121.186C119.276 121.217 120.646 121.073 121.961 120.72C123.275 120.368 124.534 119.808 125.618 119.147L148.545 105.068C150.712 103.746 151.813 102.042 151.442 100.658L147.474 85.8502C147.103 84.4663 145.229 83.5596 142.76 83.4795Z" fill="url(#paint16_radial_303_42)"/>
<path opacity="0.4" d="M121.46 118.852C120.56 119.093 119.554 119.214 118.668 119.229L91.7741 118.5C89.9837 118.461 88.7046 117.839 88.4265 116.801L84.4587 101.993C84.1992 101.025 84.9962 99.847 86.5085 98.8484L109.435 84.7699C110.21 84.3398 111.072 83.9604 112.041 83.7008C113.01 83.4412 113.946 83.3386 114.832 83.3237L141.726 84.0529C143.517 84.0923 144.796 84.7137 145.074 85.7516L149.042 100.56C149.301 101.528 148.504 102.706 146.992 103.704L124.065 117.783C123.291 118.213 122.359 118.611 121.46 118.852ZM111.985 83.4932C111.016 83.7528 110.016 84.1693 109.259 84.6686L86.3329 98.7472C84.7514 99.7643 83.9039 101.03 84.182 102.068L88.1498 116.875C88.4279 117.913 89.7945 118.585 91.6727 118.676L118.567 119.405C119.541 119.44 120.547 119.319 121.515 119.06C122.484 118.8 123.485 118.384 124.241 117.884L147.168 103.806C148.749 102.789 149.597 101.523 149.318 100.485L145.351 85.6774C145.073 84.6395 143.706 83.9674 141.828 83.8774L114.934 83.1482C113.96 83.1125 112.954 83.2336 111.985 83.4932Z" fill="white"/>
<path opacity="0.4" d="M120.588 115.6L94.6678 114.906L90.8299 100.583L112.931 87.0222L138.851 87.7157L142.689 102.039L120.588 115.6ZM112.857 86.7454L90.4974 100.45L90.4283 100.468L94.3219 114.999L120.625 115.738L142.985 102.034L143.054 102.016L139.16 87.4845L112.857 86.7454Z" fill="white"/>
<path d="M94.9777 100.287L113.45 88.9599L135.111 89.5338L138.3 101.435L119.828 112.763L98.1667 112.189L94.9777 100.287ZM113.116 87.7144L92.735 100.221L96.2578 113.368L120.162 114.009L140.543 101.502L137.02 88.3549L113.116 87.7144Z" fill="url(#paint17_linear_303_42)"/>
<path d="M113.431 88.8907L94.9778 100.288L98.1668 112.189L119.828 112.763L138.3 101.435L135.111 89.5338L113.431 88.8907Z" fill="url(#paint18_radial_303_42)"/>
<path d="M113.431 88.8907L94.9778 100.288L95.2559 101.325L113.71 89.9287L135.389 90.5718L135.111 89.5338L113.431 88.8907Z" fill="url(#paint19_linear_303_42)"/>
<g filter="url(#filter4_di_303_42)">
<path d="M120.254 98.8832C121.758 98.8141 122.911 98.9328 123.652 99.234C124.394 99.5352 124.91 100.176 125.174 101.162L125.281 101.56C125.814 103.55 123.863 105.073 119.741 106.401L120.047 107.542C120.098 107.733 119.987 107.855 119.719 107.926L118.057 108.372C117.789 108.444 117.632 108.393 117.581 108.203L117.285 107.096C115.48 107.542 113.486 107.928 111.282 108.278C110.952 108.33 110.758 108.252 110.702 108.044L110.248 106.348C110.192 106.141 110.352 105.986 110.7 105.893L118.821 103.717C119.973 103.408 120.329 103.128 120.204 102.661L120.162 102.505C120.033 102.02 119.499 101.959 118.017 102.005L113.119 102.279C110.548 102.43 109.228 101.799 108.686 99.7771L108.593 99.432C108.056 97.4251 109.784 95.9422 113.95 94.659L113.648 93.5336C113.597 93.3433 113.708 93.2212 113.976 93.1494L115.638 92.7041C115.906 92.6322 116.063 92.6827 116.114 92.873L116.406 93.9629C117.777 93.6139 119.449 93.3145 121.412 93.0293C121.748 92.9939 121.932 93.0387 121.973 93.1945L122.46 95.0095C122.511 95.1998 122.381 95.346 122.03 95.4401L115.088 97.3002C113.909 97.6161 113.558 97.9141 113.702 98.4504L113.729 98.5519C113.84 98.967 114.379 99.1564 115.346 99.12L120.254 98.8832Z" fill="url(#paint20_linear_303_42)"/>
</g>
</g>
<defs>
<filter id="filter0_dddddd_303_42" x="0.508789" y="82.4724" width="235.921" height="229.93" filterUnits="userSpaceOnUse" color-interpolation-filters="sRGB">
<feFlood flood-opacity="0" result="BackgroundImageFix"/>
<feColorMatrix in="SourceAlpha" type="matrix" values="0 0 0 0 0 0 0 0 0 0 0 0 0 0 0 0 0 0 127 0" result="hardAlpha"/>
<feOffset dy="2.76726"/>
<feGaussianBlur stdDeviation="1.1069"/>
<feColorMatrix type="matrix" values="0 0 0 0 0 0 0 0 0 0 0 0 0 0 0 0 0 0 0.0196802 0"/>
<feBlend mode="normal" in2="BackgroundImageFix" result="effect1_dropShadow_303_42"/>
<feColorMatrix in="SourceAlpha" type="matrix" values="0 0 0 0 0 0 0 0 0 0 0 0 0 0 0 0 0 0 127 0" result="hardAlpha"/>
<feOffset dy="6.6501"/>
<feGaussianBlur stdDeviation="2.66004"/>
<feColorMatrix type="matrix" values="0 0 0 0 0 0 0 0 0 0 0 0 0 0 0 0 0 0 0.0282725 0"/>
<feBlend mode="normal" in2="effect1_dropShadow_303_42" result="effect2_dropShadow_303_42"/>
<feColorMatrix in="SourceAlpha" type="matrix" values="0 0 0 0 0 0 0 0 0 0 0 0 0 0 0 0 0 0 127 0" result="hardAlpha"/>
<feOffset dy="12.5216"/>
<feGaussianBlur stdDeviation="5.00862"/>
<feColorMatrix type="matrix" values="0 0 0 0 0 0 0 0 0 0 0 0 0 0 0 0 0 0 0.035 0"/>
<feBlend mode="normal" in2="effect2_dropShadow_303_42" result="effect3_dropShadow_303_42"/>
<feColorMatrix in="SourceAlpha" type="matrix" values="0 0 0 0 0 0 0 0 0 0 0 0 0 0 0 0 0 0 127 0" result="hardAlpha"/>
<feOffset dy="22.3363"/>
<feGaussianBlur stdDeviation="8.93452"/>
<feColorMatrix type="matrix" values="0 0 0 0 0 0 0 0 0 0 0 0 0 0 0 0 0 0 0.0417275 0"/>
<feBlend mode="normal" in2="effect3_dropShadow_303_42" result="effect4_dropShadow_303_42"/>
<feColorMatrix in="SourceAlpha" type="matrix" values="0 0 0 0 0 0 0 0 0 0 0 0 0 0 0 0 0 0 127 0" result="hardAlpha"/>
<feOffset dy="41.7776"/>
<feGaussianBlur stdDeviation="16.711"/>
<feColorMatrix type="matrix" values="0 0 0 0 0 0 0 0 0 0 0 0 0 0 0 0 0 0 0.0503198 0"/>
<feBlend mode="normal" in2="effect4_dropShadow_303_42" result="effect5_dropShadow_303_42"/>
<feColorMatrix in="SourceAlpha" type="matrix" values="0 0 0 0 0 0 0 0 0 0 0 0 0 0 0 0 0 0 127 0" result="hardAlpha"/>
<feOffset dy="100"/>
<feGaussianBlur stdDeviation="40"/>
<feColorMatrix type="matrix" values="0 0 0 0 0 0 0 0 0 0 0 0 0 0 0 0 0 0 0.07 0"/>
<feBlend mode="normal" in2="effect5_dropShadow_303_42" result="effect6_dropShadow_303_42"/>
<feBlend mode="normal" in="SourceGraphic" in2="effect6_dropShadow_303_42" result="shape"/>
</filter>
<filter id="filter1_di_303_42" x="97.0403" y="84.621" width="39.7842" height="40.2395" filterUnits="userSpaceOnUse" color-interpolation-filters="sRGB">
<feFlood flood-opacity="0" result="BackgroundImageFix"/>
<feColorMatrix in="SourceAlpha" type="matrix" values="0 0 0 0 0 0 0 0 0 0 0 0 0 0 0 0 0 0 127 0" result="hardAlpha"/>
<feOffset dy="5"/>
<feGaussianBlur stdDeviation="5.72888"/>
<feColorMatrix type="matrix" values="0 0 0 0 0 0 0 0 0 0 0 0 0 0 0 0 0 0 0.1 0"/>
<feBlend mode="normal" in2="BackgroundImageFix" result="effect1_dropShadow_303_42"/>
<feBlend mode="normal" in="SourceGraphic" in2="effect1_dropShadow_303_42" result="shape"/>
<feColorMatrix in="SourceAlpha" type="matrix" values="0 0 0 0 0 0 0 0 0 0 0 0 0 0 0 0 0 0 127 0" result="hardAlpha"/>
<feOffset dy="-8.0518"/>
<feGaussianBlur stdDeviation="8.0518"/>
<feComposite in2="hardAlpha" operator="arithmetic" k2="-1" k3="1"/>
<feColorMatrix type="matrix" values="0 0 0 0 0.534917 0 0 0 0 0 0 0 0 0 0.545833 0 0 0 0.47 0"/>
<feBlend mode="normal" in2="shape" result="effect2_innerShadow_303_42"/>
</filter>
<filter id="filter2_dddddd_303_42" x="27.8599" y="12.2883" width="267.792" height="271.787" filterUnits="userSpaceOnUse" color-interpolation-filters="sRGB">
<feFlood flood-opacity="0" result="BackgroundImageFix"/>
<feColorMatrix in="SourceAlpha" type="matrix" values="0 0 0 0 0 0 0 0 0 0 0 0 0 0 0 0 0 0 127 0" result="hardAlpha"/>
<feOffset dy="2.76726"/>
<feGaussianBlur stdDeviation="1.1069"/>
<feColorMatrix type="matrix" values="0 0 0 0 0 0 0 0 0 0 0 0 0 0 0 0 0 0 0.0196802 0"/>
<feBlend mode="normal" in2="BackgroundImageFix" result="effect1_dropShadow_303_42"/>
<feColorMatrix in="SourceAlpha" type="matrix" values="0 0 0 0 0 0 0 0 0 0 0 0 0 0 0 0 0 0 127 0" result="hardAlpha"/>
<feOffset dy="6.6501"/>
<feGaussianBlur stdDeviation="2.66004"/>
<feColorMatrix type="matrix" values="0 0 0 0 0 0 0 0 0 0 0 0 0 0 0 0 0 0 0.0282725 0"/>
<feBlend mode="normal" in2="effect1_dropShadow_303_42" result="effect2_dropShadow_303_42"/>
<feColorMatrix in="SourceAlpha" type="matrix" values="0 0 0 0 0 0 0 0 0 0 0 0 0 0 0 0 0 0 127 0" result="hardAlpha"/>
<feOffset dy="12.5216"/>
<feGaussianBlur stdDeviation="5.00862"/>
<feColorMatrix type="matrix" values="0 0 0 0 0 0 0 0 0 0 0 0 0 0 0 0 0 0 0.035 0"/>
<feBlend mode="normal" in2="effect2_dropShadow_303_42" result="effect3_dropShadow_303_42"/>
<feColorMatrix in="SourceAlpha" type="matrix" values="0 0 0 0 0 0 0 0 0 0 0 0 0 0 0 0 0 0 127 0" result="hardAlpha"/>
<feOffset dy="22.3363"/>
<feGaussianBlur stdDeviation="8.93452"/>
<feColorMatrix type="matrix" values="0 0 0 0 0 0 0 0 0 0 0 0 0 0 0 0 0 0 0.0417275 0"/>
<feBlend mode="normal" in2="effect3_dropShadow_303_42" result="effect4_dropShadow_303_42"/>
<feColorMatrix in="SourceAlpha" type="matrix" values="0 0 0 0 0 0 0 0 0 0 0 0 0 0 0 0 0 0 127 0" result="hardAlpha"/>
<feOffset dy="41.7776"/>
<feGaussianBlur stdDeviation="16.711"/>
<feColorMatrix type="matrix" values="0 0 0 0 0 0 0 0 0 0 0 0 0 0 0 0 0 0 0.0503198 0"/>
<feBlend mode="normal" in2="effect4_dropShadow_303_42" result="effect5_dropShadow_303_42"/>
<feColorMatrix in="SourceAlpha" type="matrix" values="0 0 0 0 0 0 0 0 0 0 0 0 0 0 0 0 0 0 127 0" result="hardAlpha"/>
<feOffset dy="100"/>
<feGaussianBlur stdDeviation="40"/>
<feColorMatrix type="matrix" values="0 0 0 0 0 0 0 0 0 0 0 0 0 0 0 0 0 0 0.07 0"/>
<feBlend mode="normal" in2="effect5_dropShadow_303_42" result="effect6_dropShadow_303_42"/>
<feBlend mode="normal" in="SourceGraphic" in2="effect6_dropShadow_303_42" result="shape"/>
</filter>
<filter id="filter3_dddddd_303_42" x="0.508789" y="82.4724" width="235.921" height="229.93" filterUnits="userSpaceOnUse" color-interpolation-filters="sRGB">
<feFlood flood-opacity="0" result="BackgroundImageFix"/>
<feColorMatrix in="SourceAlpha" type="matrix" values="0 0 0 0 0 0 0 0 0 0 0 0 0 0 0 0 0 0 127 0" result="hardAlpha"/>
<feOffset dy="2.76726"/>
<feGaussianBlur stdDeviation="1.1069"/>
<feColorMatrix type="matrix" values="0 0 0 0 0 0 0 0 0 0 0 0 0 0 0 0 0 0 0.0196802 0"/>
<feBlend mode="normal" in2="BackgroundImageFix" result="effect1_dropShadow_303_42"/>
<feColorMatrix in="SourceAlpha" type="matrix" values="0 0 0 0 0 0 0 0 0 0 0 0 0 0 0 0 0 0 127 0" result="hardAlpha"/>
<feOffset dy="6.6501"/>
<feGaussianBlur stdDeviation="2.66004"/>
<feColorMatrix type="matrix" values="0 0 0 0 0 0 0 0 0 0 0 0 0 0 0 0 0 0 0.0282725 0"/>
<feBlend mode="normal" in2="effect1_dropShadow_303_42" result="effect2_dropShadow_303_42"/>
<feColorMatrix in="SourceAlpha" type="matrix" values="0 0 0 0 0 0 0 0 0 0 0 0 0 0 0 0 0 0 127 0" result="hardAlpha"/>
<feOffset dy="12.5216"/>
<feGaussianBlur stdDeviation="5.00862"/>
<feColorMatrix type="matrix" values="0 0 0 0 0 0 0 0 0 0 0 0 0 0 0 0 0 0 0.035 0"/>
<feBlend mode="normal" in2="effect2_dropShadow_303_42" result="effect3_dropShadow_303_42"/>
<feColorMatrix in="SourceAlpha" type="matrix" values="0 0 0 0 0 0 0 0 0 0 0 0 0 0 0 0 0 0 127 0" result="hardAlpha"/>
<feOffset dy="22.3363"/>
<feGaussianBlur stdDeviation="8.93452"/>
<feColorMatrix type="matrix" values="0 0 0 0 0 0 0 0 0 0 0 0 0 0 0 0 0 0 0.0417275 0"/>
<feBlend mode="normal" in2="effect3_dropShadow_303_42" result="effect4_dropShadow_303_42"/>
<feColorMatrix in="SourceAlpha" type="matrix" values="0 0 0 0 0 0 0 0 0 0 0 0 0 0 0 0 0 0 127 0" result="hardAlpha"/>
<feOffset dy="41.7776"/>
<feGaussianBlur stdDeviation="16.711"/>
<feColorMatrix type="matrix" values="0 0 0 0 0 0 0 0 0 0 0 0 0 0 0 0 0 0 0.0503198 0"/>
<feBlend mode="normal" in2="effect4_dropShadow_303_42" result="effect5_dropShadow_303_42"/>
<feColorMatrix in="SourceAlpha" type="matrix" values="0 0 0 0 0 0 0 0 0 0 0 0 0 0 0 0 0 0 127 0" result="hardAlpha"/>
<feOffset dy="100"/>
<feGaussianBlur stdDeviation="40"/>
<feColorMatrix type="matrix" values="0 0 0 0 0 0 0 0 0 0 0 0 0 0 0 0 0 0 0.07 0"/>
<feBlend mode="normal" in2="effect5_dropShadow_303_42" result="effect6_dropShadow_303_42"/>
<feBlend mode="normal" in="SourceGraphic" in2="effect6_dropShadow_303_42" result="shape"/>
</filter>
<filter id="filter4_di_303_42" x="97.0403" y="84.621" width="39.7842" height="40.2395" filterUnits="userSpaceOnUse" color-interpolation-filters="sRGB">
<feFlood flood-opacity="0" result="BackgroundImageFix"/>
<feColorMatrix in="SourceAlpha" type="matrix" values="0 0 0 0 0 0 0 0 0 0 0 0 0 0 0 0 0 0 127 0" result="hardAlpha"/>
<feOffset dy="5"/>
<feGaussianBlur stdDeviation="5.72888"/>
<feColorMatrix type="matrix" values="0 0 0 0 0 0 0 0 0 0 0 0 0 0 0 0 0 0 0.1 0"/>
<feBlend mode="normal" in2="BackgroundImageFix" result="effect1_dropShadow_303_42"/>
<feBlend mode="normal" in="SourceGraphic" in2="effect1_dropShadow_303_42" result="shape"/>
<feColorMatrix in="SourceAlpha" type="matrix" values="0 0 0 0 0 0 0 0 0 0 0 0 0 0 0 0 0 0 127 0" result="hardAlpha"/>
<feOffset dy="-8.0518"/>
<feGaussianBlur stdDeviation="8.0518"/>
<feComposite in2="hardAlpha" operator="arithmetic" k2="-1" k3="1"/>
<feColorMatrix type="matrix" values="0 0 0 0 0.534917 0 0 0 0 0 0 0 0 0 0.545833 0 0 0 0.47 0"/>
<feBlend mode="normal" in2="shape" result="effect2_innerShadow_303_42"/>
</filter>
<radialGradient id="paint0_radial_303_42" cx="0" cy="0" r="1" gradientUnits="userSpaceOnUse" gradientTransform="translate(118.375 107.456) rotate(-15) scale(50.2647 25.9366)">
<stop offset="0.4735" stop-color="#8706C5"/>
<stop offset="1" stop-color="#880194"/>
</radialGradient>
<linearGradient id="paint1_linear_303_42" x1="111.858" y1="83.1354" x2="122.471" y2="122.744" gradientUnits="userSpaceOnUse">
<stop stop-color="#FED4FF"/>
<stop offset="0.3344" stop-color="#FB40FF"/>
<stop offset="0.5421" stop-color="#F8A9FF"/>
<stop offset="0.7106" stop-color="#E557FC"/>
<stop offset="0.8488" stop-color="#AE14E4"/>
<stop offset="0.9486" stop-color="#8F14C9"/>
<stop offset="1" stop-color="#6F08C0"/>
</linearGradient>
<radialGradient id="paint2_radial_303_42" cx="0" cy="0" r="1" gradientUnits="userSpaceOnUse" gradientTransform="translate(113.081 86.7352) rotate(-15) scale(80.0178 31.727)">
<stop stop-color="#FE76D8"/>
<stop offset="0.1727" stop-color="#F46AC5"/>
<stop offset="0.4933" stop-color="#DA4AD4"/>
<stop offset="0.9237" stop-color="#AE18B1"/>
<stop offset="1" stop-color="#8A0EA9"/>
</radialGradient>
<linearGradient id="paint3_linear_303_42" x1="94.4653" y1="106.793" x2="138.75" y2="94.9274" gradientUnits="userSpaceOnUse">
<stop stop-color="#FF42D5"/>
<stop offset="0.5" stop-color="#EEB4FD"/>
<stop offset="0.9997" stop-color="#D23AEB"/>
</linearGradient>
<radialGradient id="paint4_radial_303_42" cx="0" cy="0" r="1" gradientUnits="userSpaceOnUse" gradientTransform="translate(114.402 94.954) rotate(-15) scale(41.1755 18.6566)">
<stop stop-color="#C21FBB"/>
<stop offset="0.5942" stop-color="#B720C4"/>
<stop offset="0.808" stop-color="#A924CA"/>
<stop offset="0.9601" stop-color="#762BD6"/>
<stop offset="1" stop-color="#C22EDA"/>
</radialGradient>
<linearGradient id="paint5_linear_303_42" x1="115.287" y1="95.9309" x2="113.41" y2="88.9271" gradientUnits="userSpaceOnUse">
<stop offset="0.000347002" stop-opacity="0"/>
<stop offset="1" stop-opacity="0.4"/>
</linearGradient>
<linearGradient id="paint6_linear_303_42" x1="112.429" y1="93.2424" x2="112.328" y2="107.571" gradientUnits="userSpaceOnUse">
<stop stop-color="#FFC8F3"/>
<stop offset="0.473958" stop-color="#FD92FF"/>
<stop offset="1" stop-color="#F473FF"/>
</linearGradient>
<radialGradient id="paint7_radial_303_42" cx="0" cy="0" r="1" gradientUnits="userSpaceOnUse" gradientTransform="translate(160.09 52.4832) rotate(-15) scale(108.441 52.6809)">
<stop offset="0.4735" stop-color="#9D50FE"/>
<stop offset="1" stop-color="#7030F7"/>
</radialGradient>
<linearGradient id="paint8_linear_303_42" x1="109.761" y1="15.535" x2="227.731" y2="111.995" gradientUnits="userSpaceOnUse">
<stop stop-color="#6BA6FF"/>
<stop offset="1" stop-color="#773DF3"/>
</linearGradient>
<radialGradient id="paint9_radial_303_42" cx="0" cy="0" r="1" gradientUnits="userSpaceOnUse" gradientTransform="translate(153.55 22.774) rotate(-15) scale(91.7414 69.242)">
<stop stop-color="#76DDFE"/>
<stop offset="0.1727" stop-color="#6ABAF4"/>
<stop offset="0.4933" stop-color="#688AE2"/>
<stop offset="0.9237" stop-color="#641ED6"/>
<stop offset="1" stop-color="#8237FC"/>
</radialGradient>
<linearGradient id="paint10_linear_303_42" x1="128.958" y1="59.469" x2="190.786" y2="42.9022" gradientUnits="userSpaceOnUse">
<stop stop-color="#654BFF"/>
<stop offset="0.4683" stop-color="#7AAFFF"/>
<stop offset="0.9997" stop-color="#6473FF"/>
</linearGradient>
<radialGradient id="paint11_radial_303_42" cx="0" cy="0" r="1" gradientUnits="userSpaceOnUse" gradientTransform="translate(163.93 66.2577) rotate(-105) scale(37.3892 49.5073)">
<stop stop-color="#8900FF"/>
<stop offset="1" stop-color="#5EB1FF"/>
</radialGradient>
<linearGradient id="paint12_linear_303_42" x1="156.979" y1="40.4348" x2="153.321" y2="26.7805" gradientUnits="userSpaceOnUse">
<stop offset="0.000347002" stop-opacity="0"/>
<stop offset="1" stop-opacity="0.4"/>
</linearGradient>
<linearGradient id="paint13_linear_303_42" x1="157.632" y1="40.8301" x2="163.558" y2="62.946" gradientUnits="userSpaceOnUse">
<stop stop-color="#66C8FF"/>
<stop offset="1" stop-color="#9542FF"/>
</linearGradient>
<radialGradient id="paint14_radial_303_42" cx="0" cy="0" r="1" gradientUnits="userSpaceOnUse" gradientTransform="translate(118.375 107.456) rotate(-15) scale(50.2647 25.9366)">
<stop offset="0.4735" stop-color="#8706C5"/>
<stop offset="1" stop-color="#880194"/>
</radialGradient>
<linearGradient id="paint15_linear_303_42" x1="111.858" y1="83.1354" x2="122.471" y2="122.744" gradientUnits="userSpaceOnUse">
<stop stop-color="#FED4FF"/>
<stop offset="0.3344" stop-color="#FB40FF"/>
<stop offset="0.5421" stop-color="#F8A9FF"/>
<stop offset="0.7106" stop-color="#E557FC"/>
<stop offset="0.8488" stop-color="#AE14E4"/>
<stop offset="0.9486" stop-color="#8F14C9"/>
<stop offset="1" stop-color="#6F08C0"/>
</linearGradient>
<radialGradient id="paint16_radial_303_42" cx="0" cy="0" r="1" gradientUnits="userSpaceOnUse" gradientTransform="translate(113.081 86.7352) rotate(-15) scale(80.0178 31.727)">
<stop stop-color="#FE76D8"/>
<stop offset="0.1727" stop-color="#F46AC5"/>
<stop offset="0.4933" stop-color="#DA4AD4"/>
<stop offset="0.9237" stop-color="#AE18B1"/>
<stop offset="1" stop-color="#8A0EA9"/>
</radialGradient>
<linearGradient id="paint17_linear_303_42" x1="94.4653" y1="106.793" x2="138.75" y2="94.9274" gradientUnits="userSpaceOnUse">
<stop stop-color="#FF42D5"/>
<stop offset="0.5" stop-color="#EEB4FD"/>
<stop offset="0.9997" stop-color="#D23AEB"/>
</linearGradient>
<radialGradient id="paint18_radial_303_42" cx="0" cy="0" r="1" gradientUnits="userSpaceOnUse" gradientTransform="translate(114.402 94.954) rotate(-15) scale(41.1755 18.6566)">
<stop stop-color="#C21FBB"/>
<stop offset="0.5942" stop-color="#B720C4"/>
<stop offset="0.808" stop-color="#A924CA"/>
<stop offset="0.9601" stop-color="#762BD6"/>
<stop offset="1" stop-color="#C22EDA"/>
</radialGradient>
<linearGradient id="paint19_linear_303_42" x1="115.287" y1="95.9309" x2="113.41" y2="88.9271" gradientUnits="userSpaceOnUse">
<stop offset="0.000347002" stop-opacity="0"/>
<stop offset="1" stop-opacity="0.4"/>
</linearGradient>
<linearGradient id="paint20_linear_303_42" x1="112.429" y1="93.2424" x2="112.328" y2="107.571" gradientUnits="userSpaceOnUse">
<stop stop-color="#FFC8F3"/>
<stop offset="0.473958" stop-color="#FD92FF"/>
<stop offset="1" stop-color="#F473FF"/>
</linearGradient>
</defs>
</svg>
