<svg width="293" height="388" viewBox="0 0 293 388" fill="none" xmlns="http://www.w3.org/2000/svg">
<g filter="url(#filter0_dddddd_303_40)">
<path d="M157.246 11.4933L124.534 10.6064C122.548 10.5976 120.437 10.8022 118.418 11.3434C116.398 11.8846 114.445 12.6784 112.752 13.7636L84.8659 30.8876C81.54 32.9514 79.8088 35.5802 80.3726 37.6843L85.1986 55.6951L88.1078 66.5523C88.6941 68.7405 91.5077 70.1515 95.3974 70.1917L128.109 71.0786C128.277 71.0335 128.384 71.0952 128.553 71.0501C128.743 71.0892 128.996 71.0215 129.271 71.038C129.439 70.9929 129.63 71.032 129.798 70.9869C130.158 70.9809 130.517 70.9748 130.938 70.862C131.022 70.8395 131.106 70.8168 131.297 70.8559C131.74 70.8273 132.245 70.6921 132.689 70.6636C132.857 70.6184 132.941 70.5959 133.109 70.5508C133.362 70.4831 133.614 70.4155 133.867 70.3478C134.035 70.3027 134.204 70.2576 134.288 70.235C134.793 70.0997 135.214 69.9869 135.696 69.7674C135.864 69.7223 135.948 69.6998 136.117 69.6547C136.285 69.6096 136.538 69.5418 136.683 69.4126C136.767 69.39 136.852 69.3675 136.936 69.3449C137.25 69.1705 137.671 69.0578 137.985 68.8834C138.153 68.8383 138.299 68.7092 138.467 68.6641C138.95 68.4447 139.494 68.1184 139.954 67.8148L167.839 50.6907C168.238 50.4937 168.529 50.2352 168.905 49.9541L168.989 49.9316C169.281 49.673 169.595 49.4987 169.886 49.2402C169.97 49.2176 169.97 49.2177 170.032 49.111C170.324 48.8525 170.531 48.6164 170.738 48.3804C170.822 48.3579 170.8 48.2739 170.884 48.2513C171.091 48.0153 171.299 47.7792 171.506 47.5433C171.506 47.5433 171.506 47.5433 171.59 47.5207C171.59 47.5207 171.59 47.5206 171.652 47.4139C171.859 47.1779 171.983 46.9646 172.083 46.667L172.145 46.5604C172.268 46.3469 172.369 46.0492 172.492 45.8358L172.469 45.7517C172.509 45.5609 172.548 45.3699 172.587 45.179L172.564 45.095C172.603 44.9041 172.642 44.7131 172.575 44.4606C172.575 44.4606 172.575 44.4607 172.552 44.3765L172.529 44.2923C172.484 44.124 172.523 43.9332 172.478 43.7649L169.637 33.1602L164.811 15.1494C163.972 13.0288 161.158 11.6177 157.246 11.4933Z" fill="url(#paint0_radial_303_40)"/>
<path opacity="0.3" d="M171.511 41.4984C171.556 41.6667 171.601 41.8349 171.562 42.0258L171.584 42.11C171.584 42.11 171.584 42.1101 171.607 42.1942C171.652 42.3626 171.613 42.5534 171.597 42.8284L171.619 42.9125C171.58 43.1034 171.541 43.2943 171.502 43.4852L171.524 43.5694C171.424 43.867 171.3 44.0804 171.177 44.2939L171.116 44.4004C170.993 44.6139 170.808 44.9342 170.684 45.1476C170.684 45.1476 170.684 45.1475 170.623 45.2542C170.623 45.2542 170.623 45.2542 170.539 45.2768C170.331 45.5128 170.208 45.7263 170.001 45.9623C169.916 45.9848 169.939 46.0688 169.855 46.0914C169.647 46.3274 169.44 46.5634 169.148 46.822C169.064 46.8445 169.064 46.8446 169.003 46.9513C168.711 47.2098 168.42 47.4684 168.106 47.6427L168.021 47.6653C167.73 47.9238 167.332 48.1207 166.956 48.4018L139.07 65.5258C138.61 65.8294 138.128 66.0489 137.584 66.3751C137.415 66.4202 137.27 66.5493 137.101 66.5944C136.787 66.7688 136.366 66.8817 136.052 67.0561C135.968 67.0786 135.884 67.1012 135.8 67.1237C135.632 67.1688 135.379 67.2364 135.233 67.3656C135.065 67.4107 134.981 67.4333 134.812 67.4784C134.392 67.5911 133.909 67.8107 133.404 67.946C133.236 67.9911 133.068 68.0362 132.983 68.0587C132.731 68.1264 132.478 68.1941 132.226 68.2617C132.058 68.3068 131.973 68.3294 131.805 68.3745C131.384 68.4873 130.857 68.5384 130.413 68.567C130.329 68.5896 130.245 68.6121 130.054 68.573C129.695 68.579 129.274 68.6918 128.915 68.6978C128.747 68.7429 128.556 68.7038 128.387 68.7489C128.112 68.7324 127.944 68.7776 127.669 68.7611C127.501 68.8062 127.394 68.7445 127.226 68.7896L94.5139 67.9027C90.6017 67.7783 87.7881 66.3673 87.2243 64.2632L85.8261 59.0451C85.781 58.8768 85.6519 58.731 85.5842 58.4785L87.8168 66.8106C88.4031 68.9989 91.2167 70.4098 95.1064 70.4501L127.818 71.337C127.986 71.2919 128.093 71.3536 128.261 71.3085C128.452 71.3475 128.705 71.2799 128.98 71.2964C129.148 71.2513 129.339 71.2904 129.507 71.2453C129.867 71.2393 130.226 71.2332 130.647 71.1204C130.731 71.0979 130.815 71.0754 131.006 71.1145C131.449 71.0859 131.954 70.9505 132.398 70.9219C132.566 70.8768 132.65 70.8543 132.818 70.8092C133.071 70.7415 133.323 70.6739 133.576 70.6062C133.744 70.5611 133.912 70.516 133.997 70.4935C134.502 70.3581 134.922 70.2453 135.405 70.0258C135.573 69.9807 135.657 69.9582 135.826 69.9131C135.994 69.868 136.247 69.8004 136.392 69.6711C136.476 69.6486 136.56 69.6261 136.645 69.6035C136.959 69.4292 137.38 69.3162 137.694 69.1419C137.862 69.0968 138.008 68.9676 138.176 68.9225C138.659 68.703 139.203 68.3769 139.662 68.0732L167.548 50.9493C167.946 50.7524 168.238 50.4938 168.614 50.2127L168.698 50.1902C168.989 49.9317 169.304 49.7573 169.595 49.4988C169.679 49.4762 169.679 49.4761 169.741 49.3694C170.033 49.1109 170.24 48.8748 170.447 48.6388C170.531 48.6163 170.509 48.5322 170.593 48.5097C170.8 48.2737 171.008 48.0377 171.215 47.8017C171.215 47.8017 171.215 47.8017 171.299 47.7791C171.299 47.7791 171.299 47.7793 171.361 47.6725C171.568 47.4366 171.692 47.2229 171.792 46.9253L171.854 46.8188C171.977 46.6053 172.078 46.3078 172.201 46.0943L172.178 46.0101C172.217 45.8192 172.257 45.6282 172.296 45.4374L172.273 45.3533C172.312 45.1625 172.351 44.9716 172.284 44.7191C172.284 44.7191 172.284 44.7191 172.261 44.6349L172.238 44.5506C172.193 44.3823 172.232 44.1916 172.187 44.0233L169.955 35.691C170 35.8593 170.067 36.1119 170.028 36.3028L171.427 41.5209L171.511 41.4984Z" fill="#E326E7"/>
<path opacity="0.3" d="M164.892 40.024L137.006 57.1479C135.29 58.149 133.36 59.0269 131.34 59.5681C129.32 60.1094 127.233 60.3981 125.223 60.3051L92.5114 59.4182C88.9584 59.2878 86.2967 58.1068 85.4414 56.2612L86.1179 58.7861C86.9733 60.6317 89.635 61.8127 93.188 61.9431L125.9 62.83C127.887 62.8389 129.997 62.6343 132.017 62.093C134.037 61.5518 135.989 60.7581 137.683 59.6728L165.568 42.5489C168.58 40.6594 170.295 38.3058 170.113 36.2798L169.436 33.7549C169.641 35.865 167.926 38.2187 164.892 40.024Z" fill="#A35C09"/>
<path d="M118.44 11.4272C116.42 11.9684 114.468 12.7621 112.774 13.8474L84.8883 30.9713C81.5625 33.0352 79.8314 35.6641 80.3951 37.7682L85.2211 55.779C85.8075 57.9673 88.6211 59.3783 92.5107 59.4185L125.222 60.3054C127.209 60.3143 129.319 60.1097 131.339 59.5684C133.359 59.0272 135.312 58.2335 137.005 57.1482L164.891 40.0243C168.217 37.9604 169.948 35.3317 169.384 33.2276L164.558 15.2168C163.972 13.0285 161.158 11.6173 157.269 11.5771L124.557 10.6902C122.547 10.5972 120.46 10.8859 118.44 11.4272Z" fill="url(#paint1_linear_303_40)"/>
<path d="M155.984 11.8311L123.272 10.9442C121.728 10.9067 120.062 11.0827 118.462 11.5112C116.863 11.9396 115.332 12.6207 114.014 13.4248L86.1282 30.5488C83.4921 32.1572 82.1531 34.2298 82.6042 35.913L87.4302 53.9241C87.8812 55.6073 90.0771 56.7328 93.1642 56.8076L125.876 57.6945C127.419 57.732 129.086 57.556 130.685 57.1276C132.284 56.6991 133.816 56.0181 135.134 55.2139L163.02 38.0899C165.656 36.4816 166.995 34.409 166.544 32.7257L161.718 14.7147C161.267 13.0314 158.986 11.9285 155.984 11.8311Z" fill="url(#paint2_radial_303_40)"/>
<path opacity="0.4" d="M130.076 54.8552C128.982 55.1483 127.759 55.2957 126.681 55.3138L93.9697 54.4269C91.7919 54.379 90.2361 53.6232 89.8979 52.3608L85.0718 34.3497C84.7561 33.1714 85.7255 31.739 87.565 30.5245L115.451 13.4005C116.393 12.8774 117.442 12.416 118.62 12.1002C119.799 11.7845 120.938 11.6597 122.015 11.6416L154.727 12.5285C156.905 12.5764 158.461 13.3322 158.799 14.5946L163.625 32.6057C163.941 33.784 162.971 35.2164 161.132 36.4309L133.246 53.5549C132.304 54.078 131.171 54.562 130.076 54.8552ZM118.553 11.8477C117.374 12.1634 116.157 12.6701 115.237 13.2774L87.3514 30.4013C85.4278 31.6384 84.397 33.1775 84.7353 34.4399L89.5613 52.4509C89.8996 53.7134 91.5618 54.5308 93.8463 54.6404L126.558 55.5273C127.742 55.5707 128.966 55.4234 130.144 55.1077C131.322 54.792 132.54 54.2853 133.46 53.678L161.345 36.5541C163.269 35.317 164.3 33.7779 163.961 32.5155L159.135 14.5044C158.797 13.242 157.135 12.4245 154.85 12.315L122.139 11.4281C120.954 11.3846 119.731 11.532 118.553 11.8477Z" fill="white"/>
<path opacity="0.4" d="M129.017 50.8996L97.4893 50.056L92.8212 32.6343L119.703 16.1401L151.23 16.9836L155.898 34.4054L129.017 50.8996ZM119.613 15.8034L92.4167 32.472L92.3327 32.4945L97.0685 50.1688L129.062 51.0678L156.258 34.3992L156.342 34.3766L151.606 16.7024L119.613 15.8034Z" fill="white"/>
<path d="M97.8663 32.2748L120.334 18.497L146.681 19.195L150.56 33.671L128.092 47.449L101.745 46.7509L97.8663 32.2748ZM119.928 16.982L95.1385 32.194L99.4233 48.185L128.498 48.964L153.288 33.7521L149.003 17.7611L119.928 16.982Z" fill="url(#paint3_linear_303_40)"/>
<path d="M120.312 18.413L97.8663 32.275L101.745 46.7511L128.092 47.4493L150.56 33.6712L146.681 19.1952L120.312 18.413Z" fill="url(#paint4_radial_303_40)"/>
<path d="M120.312 18.413L97.8663 32.275L98.2045 33.5375L120.65 19.6754L147.019 20.4576L146.681 19.1952L120.312 18.413Z" fill="url(#paint5_linear_303_40)"/>
<g filter="url(#filter1_di_303_40)">
<path d="M128.611 30.5671C130.44 30.483 131.842 30.6274 132.744 30.9937C133.645 31.36 134.273 32.1397 134.595 33.3389L134.724 33.8228C135.373 36.2428 133 38.0959 127.986 39.7104L128.358 41.0991C128.42 41.3306 128.286 41.479 127.96 41.5664L125.939 42.1081C125.612 42.1954 125.422 42.1341 125.36 41.9026L124.999 40.5559C122.804 41.0991 120.379 41.5683 117.698 41.9936C117.296 42.0572 117.061 41.9623 116.992 41.709L116.44 39.647C116.372 39.3945 116.567 39.2068 116.99 39.0933L126.868 36.4466C128.269 36.0712 128.702 35.7296 128.55 35.1618L128.499 34.9723C128.341 34.3829 127.692 34.3087 125.89 34.3637L119.932 34.6971C116.804 34.8809 115.199 34.1132 114.54 31.6543L114.428 31.2346C113.773 28.7936 115.876 26.9899 120.943 25.4292L120.576 24.0602C120.514 23.8288 120.648 23.6803 120.974 23.5929L122.996 23.0513C123.322 22.9639 123.512 23.0253 123.575 23.2567L123.93 24.5825C125.598 24.1579 127.631 23.7937 130.02 23.4469C130.427 23.4038 130.651 23.4583 130.702 23.6478L131.293 25.8555C131.355 26.0869 131.198 26.2647 130.77 26.3792L122.327 28.6416C120.893 29.0259 120.466 29.3883 120.641 30.0407L120.674 30.1641C120.809 30.669 121.465 30.8993 122.64 30.8551L128.611 30.5671Z" fill="url(#paint6_linear_303_40)"/>
</g>
</g>
<g filter="url(#filter2_dddddd_303_40)">
<path d="M179.932 138.335L158.499 152.044C157.222 152.903 156.087 154.014 155.221 155.306C154.356 156.597 153.759 158.069 153.45 159.578L148.914 184.612C148.385 187.611 149.295 190.326 151.286 191.661L168.182 202.986L173.456 206.52C175.501 207.891 178.358 207.7 180.877 206.036L202.31 192.327C203.587 191.467 204.722 190.356 205.588 189.065C205.624 189.011 205.624 189.011 205.66 188.957C205.84 188.688 206.02 188.419 206.183 188.06C206.219 188.006 206.291 187.899 206.274 187.809C206.418 187.594 206.508 187.342 206.635 187.037C206.707 186.93 206.725 186.786 206.797 186.678C206.888 186.427 206.942 186.229 207.033 185.978C207.051 185.834 207.123 185.727 207.105 185.637C207.141 185.583 207.124 185.493 207.16 185.439C207.25 185.188 207.287 184.901 207.341 184.703L211.877 159.669C211.914 159.382 211.951 159.094 211.951 158.861C211.987 158.807 211.97 158.717 211.97 158.717C211.97 158.483 212.007 158.196 212.007 157.962C212.043 157.909 211.99 157.873 212.026 157.819C212.026 157.585 212.027 157.352 211.991 157.172L211.974 157.082C211.974 156.848 211.921 156.579 211.832 156.363C211.814 156.273 211.814 156.273 211.796 156.183C211.707 155.967 211.707 155.734 211.618 155.518C211.618 155.518 211.564 155.482 211.6 155.428C211.511 155.212 211.476 155.033 211.35 154.871C211.296 154.835 211.333 154.781 211.279 154.745C211.189 154.529 211.064 154.367 210.939 154.205C210.885 154.169 210.921 154.115 210.867 154.079C210.742 153.917 210.616 153.755 210.491 153.593C210.366 153.431 210.204 153.322 210.079 153.16C210.025 153.124 209.971 153.088 209.971 153.088C209.81 152.98 209.684 152.818 209.523 152.71L204.25 149.175L187.353 137.85C185.308 136.48 182.451 136.67 179.932 138.335Z" fill="url(#paint7_radial_303_40)"/>
<path opacity="0.3" d="M208.518 152.114C208.68 152.223 208.805 152.385 208.93 152.547C209.056 152.709 209.181 152.871 209.307 153.033C209.36 153.069 209.36 153.069 209.378 153.159C209.503 153.321 209.593 153.536 209.718 153.698C209.772 153.734 209.736 153.788 209.79 153.824C209.879 154.04 210.004 154.202 210.04 154.382C210.04 154.382 210.094 154.418 210.057 154.472C210.147 154.688 210.236 154.904 210.236 155.137C210.253 155.227 210.253 155.227 210.271 155.317C210.324 155.586 210.36 155.766 210.413 156.036L210.431 156.126C210.43 156.359 210.43 156.593 210.465 156.773C210.429 156.826 210.483 156.862 210.447 156.916C210.446 157.15 210.409 157.437 210.409 157.671C210.373 157.725 210.427 157.761 210.391 157.815C210.354 158.102 210.353 158.335 210.317 158.623L205.781 183.657C205.744 183.944 205.69 184.142 205.599 184.393C205.563 184.447 205.581 184.537 205.545 184.591C205.526 184.735 205.454 184.842 205.472 184.932C205.382 185.183 205.327 185.381 205.237 185.632C205.165 185.74 205.146 185.883 205.074 185.991C204.984 186.242 204.839 186.458 204.713 186.763C204.677 186.816 204.605 186.924 204.622 187.014C204.442 187.283 204.316 187.588 204.099 187.911C204.063 187.965 204.063 187.965 204.027 188.019C203.161 189.31 202.027 190.421 200.749 191.28L179.317 204.99C176.743 206.618 173.886 206.809 171.895 205.474L173.509 206.556C175.554 207.927 178.411 207.736 180.931 206.072L202.363 192.362C203.641 191.503 204.776 190.392 205.641 189.101C205.677 189.047 205.677 189.047 205.713 188.993C205.894 188.724 206.074 188.455 206.237 188.096C206.273 188.042 206.345 187.935 206.327 187.845C206.471 187.629 206.562 187.378 206.688 187.073C206.761 186.965 206.779 186.822 206.851 186.714C206.942 186.463 206.996 186.265 207.086 186.014C207.105 185.87 207.177 185.763 207.159 185.673C207.195 185.619 207.177 185.529 207.213 185.475C207.304 185.224 207.341 184.937 207.395 184.739L211.931 159.705C211.968 159.417 212.004 159.13 212.005 158.897C212.041 158.843 212.023 158.753 212.023 158.753C212.024 158.519 212.061 158.232 212.061 157.998C212.097 157.944 212.043 157.908 212.079 157.855C212.08 157.621 212.08 157.387 212.045 157.208L212.027 157.118C212.028 156.884 211.975 156.615 211.885 156.399C211.868 156.309 211.868 156.309 211.85 156.219C211.761 156.003 211.761 155.77 211.672 155.554C211.672 155.554 211.618 155.518 211.654 155.464C211.565 155.248 211.529 155.068 211.404 154.906C211.35 154.87 211.386 154.816 211.332 154.78C211.243 154.565 211.118 154.403 210.992 154.241C210.939 154.205 210.975 154.151 210.921 154.115C210.795 153.953 210.67 153.791 210.545 153.629C210.419 153.467 210.258 153.358 210.133 153.196C210.079 153.16 210.025 153.124 210.025 153.124C209.864 153.016 209.738 152.854 209.577 152.746L207.962 151.664C208.124 151.772 208.285 151.88 208.411 152.042C208.411 152.042 208.464 152.078 208.518 152.114Z" fill="black"/>
<path opacity="0.3" d="M206.622 156.224L202.085 181.258C201.776 182.767 201.18 184.239 200.314 185.53C199.448 186.822 198.314 187.933 197.036 188.792L175.604 202.501C173.12 204.112 170.317 204.338 168.29 203.058L169.904 204.14C171.931 205.42 174.698 205.248 177.218 203.583L198.65 189.874C199.928 189.015 201.063 187.904 201.928 186.612C202.794 185.321 203.391 183.849 203.7 182.34L208.236 157.306C208.764 154.307 207.855 151.592 205.864 150.257L204.249 149.175C206.294 150.546 207.15 153.225 206.622 156.224Z" fill="black"/>
<path d="M155.221 155.306C154.356 156.597 153.759 158.069 153.45 159.578L148.914 184.612C148.385 187.611 149.295 190.326 151.286 191.661L168.182 202.986C170.227 204.356 173.084 204.166 175.604 202.501L197.036 188.792C198.314 187.933 199.449 186.822 200.314 185.53C201.18 184.239 201.776 182.767 202.086 181.259L206.622 156.224C207.15 153.225 206.241 150.51 204.25 149.175L187.353 137.85C185.308 136.48 182.451 136.67 179.932 138.335L158.499 152.044C157.168 152.867 156.087 154.014 155.221 155.306Z" fill="url(#paint8_linear_303_40)"/>
<path d="M179.875 139.467L158.443 153.176C157.453 153.838 156.552 154.716 155.867 155.739C155.182 156.761 154.712 157.928 154.475 159.095L149.939 184.129C149.52 186.5 150.216 188.604 151.83 189.686L168.726 201.011C170.341 202.093 172.551 201.937 174.584 200.648L196.017 186.939C197.007 186.277 197.907 185.399 198.592 184.376C199.278 183.354 199.748 182.187 199.984 181.02L204.52 155.986C204.939 153.615 204.244 151.511 202.63 150.429L185.733 139.104C184.119 138.022 181.909 138.178 179.875 139.467Z" fill="url(#paint9_radial_303_40)"/>
<path opacity="0.4" d="M196.816 183.186C196.347 183.885 195.681 184.531 194.979 184.996L173.547 198.705C172.143 199.636 170.526 199.722 169.396 198.964L152.499 187.639C151.369 186.882 150.888 185.389 151.162 183.701L155.698 158.667C155.862 157.841 156.169 157.033 156.674 156.28C157.179 155.526 157.809 154.935 158.511 154.47L179.944 140.761C181.347 139.83 182.964 139.744 184.094 140.501L200.991 151.827C202.121 152.584 202.602 154.076 202.329 155.764L197.793 180.799C197.629 181.625 197.285 182.486 196.816 183.186ZM156.566 156.208C156.061 156.961 155.682 157.876 155.518 158.702L150.982 183.737C150.672 185.479 151.225 187.097 152.409 187.89L169.305 199.216C170.489 200.009 172.196 199.906 173.69 198.957L195.122 185.248C195.914 184.765 196.527 184.084 197.032 183.33C197.537 182.577 197.916 181.661 198.08 180.835L202.616 155.801C202.926 154.059 202.373 152.441 201.189 151.647L184.293 140.322C183.109 139.529 181.402 139.632 179.908 140.581L158.476 154.29C157.738 154.809 157.071 155.454 156.566 156.208Z" fill="white"/>
<path opacity="0.4" d="M193.103 180.697L172.463 193.923L156.158 182.995L160.548 158.877L181.189 145.651L197.493 156.579L193.103 180.697ZM160.279 158.696L155.853 183.102L155.87 183.192L172.39 194.264L193.409 180.824L197.835 156.418L197.817 156.328L181.298 145.256L160.279 158.696Z" fill="white"/>
<path d="M159.237 180.613L162.916 160.463L180.156 149.403L193.77 158.528L193.605 159.587L190.144 178.713L172.905 189.774L159.237 180.613ZM161.517 159.526L157.455 181.758L172.468 191.821L191.489 179.615L195.551 157.382L180.538 147.32L161.517 159.526Z" fill="url(#paint10_linear_303_40)"/>
<path d="M162.916 160.463L159.237 180.613L172.851 189.738L190.144 178.713L193.605 159.587L193.77 158.528L180.156 149.403L162.916 160.463Z" fill="url(#paint11_radial_303_40)"/>
<path d="M162.916 160.463L159.237 180.613L160.044 181.154L163.723 161.004L180.963 149.944L180.156 149.403L162.916 160.463Z" fill="url(#paint12_linear_303_40)"/>
<path d="M178.668 155.468C178.309 156.189 178.008 156.935 177.804 157.681C177.599 158.451 177.482 159.214 177.456 159.951C177.435 160.665 177.461 161.363 177.532 162.039C177.592 162.71 177.672 163.36 177.72 164.015C177.766 164.678 177.835 165.345 177.866 165.988C177.897 166.631 177.877 167.274 177.763 167.904C177.652 168.532 177.44 169.17 177.14 169.785C176.525 171.054 175.698 172.285 174.673 173.087C174.167 173.486 173.613 173.761 173.094 173.836C172.575 173.91 172.085 173.791 171.812 173.452C171.528 173.112 171.442 172.523 171.49 171.873C171.536 171.218 171.693 170.534 171.892 169.792C171.993 169.425 172.096 169.057 172.186 168.681C172.203 168.608 172.215 168.531 172.23 168.458C172.346 168.395 172.461 168.332 172.578 168.27C173.145 167.976 173.714 167.704 174.241 167.536C174.765 167.364 175.227 167.347 175.473 167.564C176.377 168.17 175.528 169.974 174.89 170.883C174.252 171.793 173.251 172.514 172.403 172.308C172.593 172.517 172.849 172.641 173.145 172.666C173.464 172.689 173.812 172.611 174.155 172.439C174.853 172.093 175.479 171.458 175.964 170.782C176.44 170.13 176.878 169.265 176.994 168.427C177.061 167.989 177.042 167.573 176.935 167.209C176.822 166.827 176.604 166.526 176.304 166.337C175.692 165.969 174.916 166.115 174.278 166.343C173.625 166.577 173.016 166.899 172.42 167.23C172.41 167.235 172.401 167.241 172.391 167.247C172.418 166.576 172.415 165.427 171.964 164.446C171.594 165.465 171.093 166.549 170.432 167.436C169.611 168.539 168.689 169.549 167.695 170.437C168.564 170.226 170.04 169.654 171.303 168.963C171.264 169.254 171.219 169.55 171.165 169.85C171.099 170.206 171.011 170.561 170.926 170.943C170.843 171.324 170.782 171.702 170.745 172.074C170.698 172.465 170.697 172.844 170.74 173.202C170.782 173.587 170.899 173.93 171.084 174.211C171.278 174.493 171.542 174.699 171.858 174.813C172.161 174.929 172.498 174.975 172.854 174.951C173.566 174.904 174.323 174.582 175.018 174.113C175.712 173.645 176.347 173.009 176.89 172.323C177.422 171.636 177.877 170.888 178.237 170.107C178.602 169.321 178.874 168.476 178.968 167.679C179.082 166.876 179.024 166.15 178.945 165.477C178.857 164.803 178.742 164.185 178.646 163.544C178.539 162.898 178.424 162.271 178.341 161.636C178.176 160.373 178.164 159.039 178.596 157.687C178.856 156.856 179.267 156.044 179.775 155.284C179.779 155.334 179.781 155.388 179.785 155.44C179.832 155.977 179.918 156.495 180.041 156.99C180.163 157.484 180.323 157.953 180.52 158.392C180.718 158.829 180.939 159.226 181.157 159.616C181.594 160.393 182.023 161.144 182.345 161.967C182.667 162.791 182.884 163.676 182.922 164.642C182.957 165.615 182.82 166.651 182.517 167.695C182.223 168.752 181.8 169.821 181.346 170.906C181.074 171.559 180.783 172.218 180.515 172.899L180.11 173.272C179.965 173.408 179.828 173.556 179.687 173.697C179.541 173.845 179.419 173.975 179.293 174.109L178.911 174.5C178.408 175.012 177.88 175.486 177.333 175.918C176.793 176.337 176.238 176.696 175.678 176.941C175.117 177.183 174.556 177.313 174.022 177.325C173.482 177.34 172.968 177.237 172.483 177.064C172.241 176.978 172.009 176.869 171.779 176.753C171.559 176.64 171.31 176.491 171.057 176.375C170.549 176.136 170.004 175.944 169.392 175.855C168.781 175.779 168.089 175.803 167.326 176.108C166.568 176.401 165.762 177.043 165.18 177.834C164.598 178.624 164.259 179.691 164.308 180.557C164.33 180.985 164.44 181.369 164.629 181.683C164.819 181.998 165.084 182.235 165.406 182.378C166.037 182.65 166.807 182.549 167.506 182.245C167.874 182.082 168.161 181.919 168.469 181.761C168.777 181.604 169.08 181.448 169.381 181.299C169.603 181.189 169.819 181.091 170.031 181.001L169.156 182.235L170.102 182.697L171.986 179.394C171.089 179.649 170.109 179.982 169.29 180.354L168.369 180.788C168.066 180.923 167.742 181.083 167.496 181.163C166.972 181.342 166.483 181.337 166.162 181.11C166.007 181.007 165.887 180.856 165.811 180.668C165.735 180.479 165.705 180.257 165.724 180.02C165.742 179.794 165.804 179.56 165.905 179.332C165.957 179.218 166.017 179.106 166.084 178.998C166.115 178.943 166.157 178.89 166.192 178.837C166.228 178.783 166.261 178.715 166.298 178.658C166.586 178.18 166.97 177.8 167.439 177.535C167.908 177.271 168.448 177.137 168.971 177.135C169.498 177.126 170.014 177.228 170.491 177.414C170.733 177.507 170.954 177.612 171.211 177.737C171.464 177.852 171.722 177.961 171.994 178.046C172.539 178.234 173.126 178.331 173.743 178.336C174.378 178.333 175.047 178.192 175.717 177.92C176.387 177.652 177.043 177.25 177.66 176.796C178.268 176.337 178.855 175.829 179.417 175.278L179.83 174.868L179.887 174.81C179.58 176.099 179.632 177.161 180.265 178.318L185.168 171.003L184.593 170.963C184.496 170.956 184.397 170.957 184.296 170.966C184.207 170.973 184.118 170.983 184.03 170.999C183.857 171.027 183.681 171.067 183.504 171.12C183.16 171.222 182.815 171.362 182.473 171.539C182.287 171.632 182.104 171.737 181.924 171.848C182.028 171.596 182.133 171.343 182.238 171.089C182.694 169.986 183.143 168.847 183.461 167.685C183.782 166.53 183.972 165.332 183.934 164.232C183.907 163.126 183.693 162.108 183.366 161.199C183.045 160.284 182.619 159.469 182.213 158.675C182.011 158.278 181.813 157.885 181.65 157.485C181.52 157.134 181.39 156.781 181.29 156.409C180.897 154.995 180.866 153.366 181.198 151.665C180.224 152.933 179.256 154.312 178.668 155.468ZM170.335 168.454L170.733 167.908L171.435 166.923C171.444 167.21 171.442 167.504 171.424 167.806L171.423 167.808L171.41 167.815C171.066 168.087 170.703 168.303 170.335 168.454ZM183.2 172.443L180.81 175.999C180.777 175.488 180.855 174.913 181.03 174.299C181.103 174.046 181.185 173.789 181.275 173.529C181.7 173.191 182.146 172.907 182.6 172.685C182.799 172.586 183 172.505 183.2 172.443Z" fill="url(#paint13_linear_303_40)"/>
<g opacity="0.25">
<path opacity="0.25" d="M182.6 172.684C182.146 172.907 181.7 173.191 181.275 173.529C181.275 173.529 181.986 173.236 182.657 173.251L183.198 172.443C182.999 172.505 182.799 172.586 182.6 172.684Z" fill="white"/>
</g>
<g opacity="0.25">
<path opacity="0.25" d="M175.472 167.565C175.226 167.347 174.764 167.365 174.24 167.536C173.713 167.704 173.144 167.976 172.576 168.27C172.461 168.33 172.345 168.395 172.229 168.458C172.229 168.458 174.014 167.764 174.826 168.122C175.545 168.439 175.712 169.599 174.874 170.905L174.888 170.884C175.527 169.974 176.376 168.17 175.472 167.565Z" fill="white"/>
</g>
<g opacity="0.25">
<path opacity="0.25" d="M171.434 166.924L171.186 167.271C171.286 167.429 171.365 167.605 171.422 167.798C171.44 167.498 171.442 167.207 171.434 166.924Z" fill="white"/>
</g>
<g opacity="0.25">
<path opacity="0.25" d="M178.967 167.68C178.873 168.478 178.602 169.322 178.236 170.109C177.876 170.889 177.421 171.638 176.889 172.324C176.346 173.01 175.716 173.645 175.017 174.115C174.318 174.585 173.565 174.904 172.853 174.953C172.669 174.965 172.489 174.958 172.316 174.932L172.322 174.934C173.481 175.234 175.546 174.932 177.229 172.632C179.201 169.938 179.299 168.085 178.976 165.777L178.974 165.78C179.034 166.367 179.065 166.994 178.967 167.68Z" fill="white"/>
</g>
</g>
<defs>
<filter id="filter0_dddddd_303_40" x="0.267578" y="10.6062" width="252.344" height="240.731" filterUnits="userSpaceOnUse" color-interpolation-filters="sRGB">
<feFlood flood-opacity="0" result="BackgroundImageFix"/>
<feColorMatrix in="SourceAlpha" type="matrix" values="0 0 0 0 0 0 0 0 0 0 0 0 0 0 0 0 0 0 127 0" result="hardAlpha"/>
<feOffset dy="2.76726"/>
<feGaussianBlur stdDeviation="1.1069"/>
<feColorMatrix type="matrix" values="0 0 0 0 0 0 0 0 0 0 0 0 0 0 0 0 0 0 0.0196802 0"/>
<feBlend mode="normal" in2="BackgroundImageFix" result="effect1_dropShadow_303_40"/>
<feColorMatrix in="SourceAlpha" type="matrix" values="0 0 0 0 0 0 0 0 0 0 0 0 0 0 0 0 0 0 127 0" result="hardAlpha"/>
<feOffset dy="6.6501"/>
<feGaussianBlur stdDeviation="2.66004"/>
<feColorMatrix type="matrix" values="0 0 0 0 0 0 0 0 0 0 0 0 0 0 0 0 0 0 0.0282725 0"/>
<feBlend mode="normal" in2="effect1_dropShadow_303_40" result="effect2_dropShadow_303_40"/>
<feColorMatrix in="SourceAlpha" type="matrix" values="0 0 0 0 0 0 0 0 0 0 0 0 0 0 0 0 0 0 127 0" result="hardAlpha"/>
<feOffset dy="12.5216"/>
<feGaussianBlur stdDeviation="5.00862"/>
<feColorMatrix type="matrix" values="0 0 0 0 0 0 0 0 0 0 0 0 0 0 0 0 0 0 0.035 0"/>
<feBlend mode="normal" in2="effect2_dropShadow_303_40" result="effect3_dropShadow_303_40"/>
<feColorMatrix in="SourceAlpha" type="matrix" values="0 0 0 0 0 0 0 0 0 0 0 0 0 0 0 0 0 0 127 0" result="hardAlpha"/>
<feOffset dy="22.3363"/>
<feGaussianBlur stdDeviation="8.93452"/>
<feColorMatrix type="matrix" values="0 0 0 0 0 0 0 0 0 0 0 0 0 0 0 0 0 0 0.0417275 0"/>
<feBlend mode="normal" in2="effect3_dropShadow_303_40" result="effect4_dropShadow_303_40"/>
<feColorMatrix in="SourceAlpha" type="matrix" values="0 0 0 0 0 0 0 0 0 0 0 0 0 0 0 0 0 0 127 0" result="hardAlpha"/>
<feOffset dy="41.7776"/>
<feGaussianBlur stdDeviation="16.711"/>
<feColorMatrix type="matrix" values="0 0 0 0 0 0 0 0 0 0 0 0 0 0 0 0 0 0 0.0503198 0"/>
<feBlend mode="normal" in2="effect4_dropShadow_303_40" result="effect5_dropShadow_303_40"/>
<feColorMatrix in="SourceAlpha" type="matrix" values="0 0 0 0 0 0 0 0 0 0 0 0 0 0 0 0 0 0 127 0" result="hardAlpha"/>
<feOffset dy="100"/>
<feGaussianBlur stdDeviation="40"/>
<feColorMatrix type="matrix" values="0 0 0 0 0 0 0 0 0 0 0 0 0 0 0 0 0 0 0.07 0"/>
<feBlend mode="normal" in2="effect5_dropShadow_303_40" result="effect6_dropShadow_303_40"/>
<feBlend mode="normal" in="SourceGraphic" in2="effect6_dropShadow_303_40" result="shape"/>
</filter>
<filter id="filter1_di_303_40" x="102.854" y="14.9616" width="43.4331" height="43.6421" filterUnits="userSpaceOnUse" color-interpolation-filters="sRGB">
<feFlood flood-opacity="0" result="BackgroundImageFix"/>
<feColorMatrix in="SourceAlpha" type="matrix" values="0 0 0 0 0 0 0 0 0 0 0 0 0 0 0 0 0 0 127 0" result="hardAlpha"/>
<feOffset dy="5"/>
<feGaussianBlur stdDeviation="5.72888"/>
<feColorMatrix type="matrix" values="0 0 0 0 0 0 0 0 0 0 0 0 0 0 0 0 0 0 0.1 0"/>
<feBlend mode="normal" in2="BackgroundImageFix" result="effect1_dropShadow_303_40"/>
<feBlend mode="normal" in="SourceGraphic" in2="effect1_dropShadow_303_40" result="shape"/>
<feColorMatrix in="SourceAlpha" type="matrix" values="0 0 0 0 0 0 0 0 0 0 0 0 0 0 0 0 0 0 127 0" result="hardAlpha"/>
<feOffset dy="-8.0518"/>
<feGaussianBlur stdDeviation="8.0518"/>
<feComposite in2="hardAlpha" operator="arithmetic" k2="-1" k3="1"/>
<feColorMatrix type="matrix" values="0 0 0 0 0.534917 0 0 0 0 0 0 0 0 0 0.545833 0 0 0 0.47 0"/>
<feBlend mode="normal" in2="shape" result="effect2_innerShadow_303_40"/>
</filter>
<filter id="filter2_dddddd_303_40" x="68.7656" y="136.94" width="223.314" height="250.526" filterUnits="userSpaceOnUse" color-interpolation-filters="sRGB">
<feFlood flood-opacity="0" result="BackgroundImageFix"/>
<feColorMatrix in="SourceAlpha" type="matrix" values="0 0 0 0 0 0 0 0 0 0 0 0 0 0 0 0 0 0 127 0" result="hardAlpha"/>
<feOffset dy="2.76726"/>
<feGaussianBlur stdDeviation="1.1069"/>
<feColorMatrix type="matrix" values="0 0 0 0 0 0 0 0 0 0 0 0 0 0 0 0 0 0 0.0196802 0"/>
<feBlend mode="normal" in2="BackgroundImageFix" result="effect1_dropShadow_303_40"/>
<feColorMatrix in="SourceAlpha" type="matrix" values="0 0 0 0 0 0 0 0 0 0 0 0 0 0 0 0 0 0 127 0" result="hardAlpha"/>
<feOffset dy="6.6501"/>
<feGaussianBlur stdDeviation="2.66004"/>
<feColorMatrix type="matrix" values="0 0 0 0 0 0 0 0 0 0 0 0 0 0 0 0 0 0 0.0282725 0"/>
<feBlend mode="normal" in2="effect1_dropShadow_303_40" result="effect2_dropShadow_303_40"/>
<feColorMatrix in="SourceAlpha" type="matrix" values="0 0 0 0 0 0 0 0 0 0 0 0 0 0 0 0 0 0 127 0" result="hardAlpha"/>
<feOffset dy="12.5216"/>
<feGaussianBlur stdDeviation="5.00862"/>
<feColorMatrix type="matrix" values="0 0 0 0 0 0 0 0 0 0 0 0 0 0 0 0 0 0 0.035 0"/>
<feBlend mode="normal" in2="effect2_dropShadow_303_40" result="effect3_dropShadow_303_40"/>
<feColorMatrix in="SourceAlpha" type="matrix" values="0 0 0 0 0 0 0 0 0 0 0 0 0 0 0 0 0 0 127 0" result="hardAlpha"/>
<feOffset dy="22.3363"/>
<feGaussianBlur stdDeviation="8.93452"/>
<feColorMatrix type="matrix" values="0 0 0 0 0 0 0 0 0 0 0 0 0 0 0 0 0 0 0.0417275 0"/>
<feBlend mode="normal" in2="effect3_dropShadow_303_40" result="effect4_dropShadow_303_40"/>
<feColorMatrix in="SourceAlpha" type="matrix" values="0 0 0 0 0 0 0 0 0 0 0 0 0 0 0 0 0 0 127 0" result="hardAlpha"/>
<feOffset dy="41.7776"/>
<feGaussianBlur stdDeviation="16.711"/>
<feColorMatrix type="matrix" values="0 0 0 0 0 0 0 0 0 0 0 0 0 0 0 0 0 0 0.0503198 0"/>
<feBlend mode="normal" in2="effect4_dropShadow_303_40" result="effect5_dropShadow_303_40"/>
<feColorMatrix in="SourceAlpha" type="matrix" values="0 0 0 0 0 0 0 0 0 0 0 0 0 0 0 0 0 0 127 0" result="hardAlpha"/>
<feOffset dy="100"/>
<feGaussianBlur stdDeviation="40"/>
<feColorMatrix type="matrix" values="0 0 0 0 0 0 0 0 0 0 0 0 0 0 0 0 0 0 0.07 0"/>
<feBlend mode="normal" in2="effect5_dropShadow_303_40" result="effect6_dropShadow_303_40"/>
<feBlend mode="normal" in="SourceGraphic" in2="effect6_dropShadow_303_40" result="shape"/>
</filter>
<radialGradient id="paint0_radial_303_40" cx="0" cy="0" r="1" gradientUnits="userSpaceOnUse" gradientTransform="translate(126.325 40.9947) rotate(-15) scale(61.1375 31.5469)">
<stop offset="0.4735" stop-color="#8706C5"/>
<stop offset="1" stop-color="#880194"/>
</radialGradient>
<linearGradient id="paint1_linear_303_40" x1="118.398" y1="11.4127" x2="131.307" y2="59.5891" gradientUnits="userSpaceOnUse">
<stop stop-color="#FED4FF"/>
<stop offset="0.3344" stop-color="#FB40FF"/>
<stop offset="0.5421" stop-color="#F8A9FF"/>
<stop offset="0.7106" stop-color="#E557FC"/>
<stop offset="0.8488" stop-color="#AE14E4"/>
<stop offset="0.9486" stop-color="#8F14C9"/>
<stop offset="1" stop-color="#6F08C0"/>
</linearGradient>
<radialGradient id="paint2_radial_303_40" cx="0" cy="0" r="1" gradientUnits="userSpaceOnUse" gradientTransform="translate(119.885 15.7911) rotate(-15) scale(97.3266 38.5899)">
<stop stop-color="#FE76D8"/>
<stop offset="0.1727" stop-color="#F46AC5"/>
<stop offset="0.4933" stop-color="#DA4AD4"/>
<stop offset="0.9237" stop-color="#AE18B1"/>
<stop offset="1" stop-color="#8A0EA9"/>
</radialGradient>
<linearGradient id="paint3_linear_303_40" x1="97.243" y1="40.188" x2="151.107" y2="25.7553" gradientUnits="userSpaceOnUse">
<stop stop-color="#FF42D5"/>
<stop offset="0.5" stop-color="#EEB4FD"/>
<stop offset="0.9997" stop-color="#D23AEB"/>
</linearGradient>
<radialGradient id="paint4_radial_303_40" cx="0" cy="0" r="1" gradientUnits="userSpaceOnUse" gradientTransform="translate(121.492 25.7877) rotate(-15) scale(50.0822 22.6923)">
<stop stop-color="#C21FBB"/>
<stop offset="0.5942" stop-color="#B720C4"/>
<stop offset="0.808" stop-color="#A924CA"/>
<stop offset="0.9601" stop-color="#762BD6"/>
<stop offset="1" stop-color="#C22EDA"/>
</radialGradient>
<linearGradient id="paint5_linear_303_40" x1="122.568" y1="26.976" x2="120.285" y2="18.4572" gradientUnits="userSpaceOnUse">
<stop offset="0.000347002" stop-opacity="0"/>
<stop offset="1" stop-opacity="0.4"/>
</linearGradient>
<linearGradient id="paint6_linear_303_40" x1="119.093" y1="23.7061" x2="118.97" y2="41.1339" gradientUnits="userSpaceOnUse">
<stop stop-color="#FFC8F3"/>
<stop offset="0.473958" stop-color="#FD92FF"/>
<stop offset="1" stop-color="#F473FF"/>
</linearGradient>
<radialGradient id="paint7_radial_303_40" cx="0" cy="0" r="1" gradientUnits="userSpaceOnUse" gradientTransform="translate(177.172 170.132) rotate(-56.1673) scale(70.2376 34.1215)">
<stop offset="0.4735" stop-color="#9D50FE"/>
<stop offset="1" stop-color="#7030F7"/>
</radialGradient>
<linearGradient id="paint8_linear_303_40" x1="136.88" y1="173.574" x2="235.527" y2="170.309" gradientUnits="userSpaceOnUse">
<stop stop-color="#6BA6FF"/>
<stop offset="1" stop-color="#773DF3"/>
</linearGradient>
<radialGradient id="paint9_radial_303_40" cx="0" cy="0" r="1" gradientUnits="userSpaceOnUse" gradientTransform="translate(161.317 158.434) rotate(-56.1673) scale(59.421 44.8481)">
<stop stop-color="#76DDFE"/>
<stop offset="0.1727" stop-color="#6ABAF4"/>
<stop offset="0.4933" stop-color="#688AE2"/>
<stop offset="0.9237" stop-color="#641ED6"/>
<stop offset="1" stop-color="#8237FC"/>
</radialGradient>
<linearGradient id="paint10_linear_303_40" x1="164.972" y1="186.811" x2="188.055" y2="152.372" gradientUnits="userSpaceOnUse">
<stop stop-color="#654BFF"/>
<stop offset="0.4683" stop-color="#7AAFFF"/>
<stop offset="0.9997" stop-color="#6473FF"/>
</linearGradient>
<radialGradient id="paint11_radial_303_40" cx="0" cy="0" r="1" gradientUnits="userSpaceOnUse" gradientTransform="translate(184.918 175.21) rotate(-146.167) scale(24.217 32.0659)">
<stop stop-color="#8900FF"/>
<stop offset="1" stop-color="#5EB1FF"/>
</radialGradient>
<linearGradient id="paint12_linear_303_40" x1="170.519" y1="165.583" x2="162.913" y2="160.485" gradientUnits="userSpaceOnUse">
<stop offset="0.000347002" stop-opacity="0"/>
<stop offset="1" stop-opacity="0.4"/>
</linearGradient>
<linearGradient id="paint13_linear_303_40" x1="171.006" y1="165.497" x2="183.324" y2="173.754" gradientUnits="userSpaceOnUse">
<stop stop-color="#66C8FF"/>
<stop offset="1" stop-color="#9542FF"/>
</linearGradient>
</defs>
</svg>
