<svg width="219" height="35" viewBox="0 0 219 35" fill="none" xmlns="http://www.w3.org/2000/svg">
<g clip-path="url(#clip0_311_35)">
<path d="M33.8109 4.31554C32.9035 4.49016 32.0094 4.76911 31.176 5.18322C30.3203 5.61834 29.5259 6.17084 28.8144 6.8256C28.1277 7.46744 27.4856 8.15796 26.8926 8.89208C26.2972 9.60555 25.734 10.329 25.1466 11.0094C24.5504 11.697 23.9642 12.42 23.3773 13.0663C22.7903 13.7126 22.1702 14.2887 21.5039 14.7209C20.8411 15.1543 20.1057 15.4568 19.3353 15.6131C17.7488 15.9447 16.0637 15.941 14.6597 15.2589C13.9629 14.9237 13.3526 14.4066 12.9542 13.7503C12.5558 13.094 12.3575 12.2952 12.5047 11.5945C12.6471 10.8778 13.1481 10.2038 13.792 9.66179C14.4389 9.11116 15.1832 8.68979 16.0099 8.27159C16.4198 8.0693 16.8322 7.8661 17.2438 7.64067C17.3236 7.59532 17.4034 7.54089 17.4827 7.49281C17.6149 7.59668 17.7471 7.69828 17.8793 7.80305C18.5156 8.32239 19.1322 8.8626 19.624 9.44408C20.1175 10.016 20.426 10.6465 20.3766 11.1949C20.3766 13.0291 18.1375 13.533 16.8759 13.494C15.6142 13.455 14.3005 12.7298 13.9581 11.3482C13.881 11.8106 13.9267 12.2859 14.0903 12.7239C14.2697 13.1926 14.5634 13.6059 14.943 13.924C15.7107 14.5772 16.7058 14.8584 17.6506 14.9024C18.5672 14.9568 19.6601 14.7586 20.5238 14.1345C20.98 13.8184 21.3604 13.3996 21.6361 12.9098C21.9248 12.3925 22.0713 11.8041 22.0601 11.2076C22.0208 10.0047 21.3915 9.05537 20.7724 8.37501C20.1387 7.68059 19.4503 7.1304 18.7607 6.60608C18.7496 6.59746 18.7382 6.58975 18.7267 6.58158C19.3772 5.98922 20.4591 4.90654 21.0989 3.35396C19.9038 3.79302 18.5641 4.10961 17.309 4.01482C15.7491 3.90033 14.2128 3.55839 12.7462 2.99927C13.4954 4.0189 14.9686 5.54834 16.4198 6.66867C16.1205 6.88729 15.8116 7.10183 15.4943 7.30775C15.1175 7.54996 14.7266 7.7586 14.3124 7.99809C13.9006 8.23935 13.5057 8.50989 13.1305 8.80771C12.7323 9.10914 12.3736 9.46239 12.0636 9.85864C11.7267 10.2783 11.4768 10.7643 11.329 11.2869C11.1855 11.8241 11.1585 12.3871 11.2497 12.9361C11.3327 13.4695 11.5016 13.9849 11.7494 14.461C12.2452 15.4135 13.0274 16.1724 13.9087 16.7049C14.7901 17.2374 15.7918 17.529 16.7824 17.6456C17.7669 17.7457 18.7607 17.6804 19.7249 17.4523C20.6983 17.2256 21.667 16.8128 22.4787 16.1969C23.3089 15.6027 23.9568 14.8398 24.5415 14.0977C25.1224 13.3425 25.6327 12.6009 26.1769 11.8648C26.7185 11.1091 27.2376 10.3585 27.7841 9.64682C28.8712 8.23032 30.1232 6.96122 31.6718 6.2981C32.6206 5.88127 33.6465 5.6953 34.6843 5.69258C34.6402 5.7461 34.5904 5.79826 34.5442 5.85224C34.0675 6.42315 33.6325 7.02957 33.2428 7.66653C32.8544 8.30122 32.5137 8.96552 32.2235 9.65363C31.9362 10.3412 31.7013 11.023 31.4713 11.6947C31.0143 13.0355 30.5767 14.3413 30.0038 15.565C29.4309 16.7888 28.7329 17.9236 27.8445 18.8834C26.9488 19.8456 25.8849 20.6255 24.7086 21.1821C23.5244 21.7617 22.2491 22.1736 20.9372 22.5559C20.1501 22.7882 19.3437 22.9995 18.5319 23.2635L17.9238 23.0463C17.7035 22.971 17.4774 22.9174 17.2544 22.853C17.023 22.7864 16.823 22.7383 16.6172 22.687L16.0059 22.5201C15.2046 22.2954 14.4233 22.001 13.6703 21.6402C12.9331 21.2773 12.243 20.8374 11.6582 20.284C11.0753 19.7254 10.5973 19.0612 10.248 18.3246C9.89279 17.5821 9.66496 16.7656 9.52174 15.9252C9.44947 15.5056 9.40584 15.077 9.36926 14.647C9.33709 14.232 9.31991 13.7439 9.27011 13.2804C9.17404 12.3451 9.01055 11.4008 8.70736 10.4619C8.39271 9.53388 7.93264 8.58728 7.16232 7.80577C6.40655 7.01883 5.2903 6.49268 4.17625 6.42011C3.06221 6.34754 1.84063 6.87368 1.05534 7.75543C0.665672 8.1874 0.372182 8.70161 0.195307 9.26224C0.0184333 9.82288 -0.0375727 10.4165 0.0311903 11.0016C0.173531 12.1406 0.755673 13.1239 1.48544 13.8183C1.87148 14.1812 2.20728 14.4288 2.55057 14.7128C2.89387 14.9967 3.23187 15.2738 3.56415 15.556C3.8074 15.7642 4.037 15.9733 4.25602 16.1855L2.53735 16.1193L2.69997 17.8773L7.00808 17.4152C6.20075 16.3978 5.2665 15.3401 4.39792 14.5418L3.40594 13.6587C3.08645 13.3616 2.73037 13.0586 2.49946 12.7878C1.99928 12.2218 1.69477 11.5337 1.70623 10.8706C1.70482 10.5572 1.77157 10.2475 1.90158 9.96421C2.0316 9.68088 2.22158 9.43109 2.45759 9.23317C2.68182 9.04764 2.94232 8.91412 3.22129 8.84173C3.36179 8.80681 3.50524 8.786 3.64964 8.77959C3.72103 8.77098 3.79683 8.77959 3.86998 8.77959C3.94313 8.77959 4.02863 8.76145 4.10619 8.75964C4.73945 8.71428 5.3401 8.89571 5.88655 9.30392C6.43299 9.71214 6.90012 10.3431 7.23283 11.0729C7.5748 11.8022 7.80572 12.6209 7.93131 13.4632C7.99698 13.8891 8.03708 14.2973 8.08159 14.7749C8.13359 15.238 8.19352 15.7007 8.28562 16.1619C8.45333 17.1008 8.73278 18.0148 9.11763 18.8834C9.52283 19.769 10.0788 20.5729 10.7592 21.2569C11.4361 21.9427 12.2293 22.4847 13.0485 22.9233C13.866 23.3426 14.717 23.6887 15.5921 23.9579L16.2395 24.1516L16.3312 24.177C14.921 24.9567 13.9515 26.0271 13.2601 27.9997H23.2636L22.9379 27.1565C22.8832 27.0146 22.8194 26.8766 22.7471 26.7433C22.6841 26.6245 22.618 26.5102 22.5479 26.4018C22.4115 26.185 22.2621 25.9771 22.1006 25.7795C21.787 25.3935 21.4362 25.0412 21.0535 24.7281C20.8477 24.5557 20.6331 24.3979 20.4145 24.2491C20.7177 24.1584 21.0227 24.0677 21.329 23.977C22.6581 23.581 24.0171 23.1392 25.3145 22.4947C26.6079 21.8597 27.8581 21.0011 28.8726 19.9157C29.8989 18.8398 30.7234 17.5843 31.3748 16.2735C32.0358 14.9654 32.5346 13.6033 33.0269 12.2902C33.2737 11.6339 33.5196 10.9889 33.7941 10.3852C34.0427 9.87225 34.2938 9.35971 34.5816 8.87031C35.6673 6.99361 37.1846 5.42042 38.9999 4.28923C37.1874 4.11506 35.2744 4.05428 33.8109 4.31554ZM16.2867 4.83487L17.0539 4.88023L18.4271 4.93874C18.1627 5.2195 17.8837 5.49301 17.5871 5.752H17.5849L17.5699 5.74157C17.0963 5.51459 16.6627 5.20819 16.2867 4.83487ZM20.6596 26.595L15.7927 26.5859C16.2541 26.0593 16.8459 25.6298 17.536 25.2992C17.8207 25.1631 18.1159 25.0365 18.4174 24.9186C19.0057 25.1967 19.5555 25.5541 20.0523 25.9813C20.2712 26.1679 20.4743 26.3732 20.6596 26.595Z" fill="url(#paint0_linear_311_35)"/>
<g opacity="0.25">
<path opacity="0.25" d="M27.8418 18.8844C28.7315 17.926 29.434 16.7884 30.0011 15.5661C30.5683 14.3437 31.0116 13.0365 31.4686 11.6957C31.6986 11.0253 31.9335 10.3436 32.2208 9.65465C32.511 8.96655 32.8517 8.30225 33.2401 7.66755C33.6299 7.03059 34.0648 6.42417 34.5415 5.85326C34.5855 5.79929 34.6353 5.74713 34.6816 5.6936C34.0279 5.69597 33.3769 5.77927 32.7426 5.94171C32.1257 6.83162 30.9151 8.92259 29.5609 13.1394C28.0304 17.9115 25.6613 20.6842 21.9873 22.2372C22.9277 21.9392 23.8417 21.6063 24.7059 21.1831C25.8823 20.6265 26.9461 19.8467 27.8418 18.8844Z" fill="white"/>
</g>
<g opacity="0.25">
<path opacity="0.25" d="M20.0531 25.9814C19.5563 25.5542 19.0065 25.1968 18.4182 24.9187C18.4182 24.9187 19.1449 25.6394 19.5543 26.5928H20.6595C20.4745 26.3718 20.2716 26.1673 20.0531 25.9814Z" fill="white"/>
</g>
<g opacity="0.25">
<path opacity="0.25" d="M20.3764 11.1951C20.4258 10.6467 20.1173 10.0163 19.6238 9.44297C19.132 8.86149 18.5154 8.32128 17.8791 7.80194C17.75 7.69717 17.6147 7.59557 17.4825 7.4917C17.4825 7.4917 19.2659 9.34001 19.4418 10.8128C19.5973 12.1177 18.6089 13.4403 16.8457 13.4925H16.8743C18.1373 13.5333 20.3764 13.0294 20.3764 11.1951Z" fill="white"/>
</g>
<g opacity="0.25">
<path opacity="0.25" d="M18.4269 4.93814L17.9422 4.91772C17.8571 5.20558 17.7404 5.48253 17.5945 5.74323C17.8889 5.4865 18.1652 5.21618 18.4269 4.93814Z" fill="white"/>
</g>
<g opacity="0.25">
<path opacity="0.25" d="M22.477 16.1976C21.6652 16.8135 20.6966 17.2272 19.7232 17.4531C18.759 17.6811 17.7652 17.7464 16.7807 17.6463C15.7901 17.5297 14.7928 17.2431 13.907 16.7056C13.0212 16.1681 12.2443 15.4133 11.7477 14.4617C11.6195 14.2148 11.5124 13.9568 11.4277 13.6907L11.4299 13.6993C11.8799 15.6043 13.4703 18.2123 16.7049 18.411C20.4948 18.6437 22.3047 17.0412 24.2789 14.4227H24.275C23.7585 15.0591 23.186 15.69 22.477 16.1976Z" fill="white"/>
</g>
</g>
<path d="M61.502 28L61.472 14.08L54.572 25.6H52.832L45.932 14.26V28H42.212V7H45.422L53.762 20.92L61.952 7H65.162L65.192 28H61.502ZM76.8043 28.21C75.1843 28.21 73.7243 27.86 72.4243 27.16C71.1243 26.46 70.1043 25.49 69.3643 24.25C68.6443 22.99 68.2843 21.57 68.2843 19.99C68.2843 18.41 68.6443 17 69.3643 15.76C70.1043 14.52 71.1243 13.55 72.4243 12.85C73.7243 12.15 75.1843 11.8 76.8043 11.8C78.4443 11.8 79.9143 12.15 81.2143 12.85C82.5143 13.55 83.5243 14.52 84.2443 15.76C84.9843 17 85.3543 18.41 85.3543 19.99C85.3543 21.57 84.9843 22.99 84.2443 24.25C83.5243 25.49 82.5143 26.46 81.2143 27.16C79.9143 27.86 78.4443 28.21 76.8043 28.21ZM76.8043 25C78.1843 25 79.3243 24.54 80.2243 23.62C81.1243 22.7 81.5743 21.49 81.5743 19.99C81.5743 18.49 81.1243 17.28 80.2243 16.36C79.3243 15.44 78.1843 14.98 76.8043 14.98C75.4243 14.98 74.2843 15.44 73.3843 16.36C72.5043 17.28 72.0643 18.49 72.0643 19.99C72.0643 21.49 72.5043 22.7 73.3843 23.62C74.2843 24.54 75.4243 25 76.8043 25ZM91.6103 14.32C92.6903 12.64 94.5903 11.8 97.3103 11.8V15.37C96.9903 15.31 96.7003 15.28 96.4403 15.28C94.9803 15.28 93.8403 15.71 93.0203 16.57C92.2003 17.41 91.7903 18.63 91.7903 20.23V28H88.0403V11.98H91.6103V14.32ZM114.505 20.08C114.505 20.34 114.485 20.71 114.445 21.19H101.875C102.095 22.37 102.665 23.31 103.585 24.01C104.525 24.69 105.685 25.03 107.065 25.03C108.825 25.03 110.275 24.45 111.415 23.29L113.425 25.6C112.705 26.46 111.795 27.11 110.695 27.55C109.595 27.99 108.355 28.21 106.975 28.21C105.215 28.21 103.665 27.86 102.325 27.16C100.985 26.46 99.945 25.49 99.205 24.25C98.485 22.99 98.125 21.57 98.125 19.99C98.125 18.43 98.475 17.03 99.175 15.79C99.895 14.53 100.885 13.55 102.145 12.85C103.405 12.15 104.825 11.8 106.405 11.8C107.965 11.8 109.355 12.15 110.575 12.85C111.815 13.53 112.775 14.5 113.455 15.76C114.155 17 114.505 18.44 114.505 20.08ZM106.405 14.8C105.205 14.8 104.185 15.16 103.345 15.88C102.525 16.58 102.025 17.52 101.845 18.7H110.935C110.775 17.54 110.285 16.6 109.465 15.88C108.645 15.16 107.625 14.8 106.405 14.8ZM137.427 11.8C139.447 11.8 141.047 12.39 142.227 13.57C143.407 14.73 143.997 16.48 143.997 18.82V28H140.247V19.3C140.247 17.9 139.937 16.85 139.317 16.15C138.697 15.43 137.807 15.07 136.647 15.07C135.387 15.07 134.377 15.49 133.617 16.33C132.857 17.15 132.477 18.33 132.477 19.87V28H128.727V19.3C128.727 17.9 128.417 16.85 127.797 16.15C127.177 15.43 126.287 15.07 125.127 15.07C123.847 15.07 122.827 15.48 122.067 16.3C121.327 17.12 120.957 18.31 120.957 19.87V28H117.207V11.98H120.777V14.02C121.377 13.3 122.127 12.75 123.027 12.37C123.927 11.99 124.927 11.8 126.027 11.8C127.227 11.8 128.287 12.03 129.207 12.49C130.147 12.93 130.887 13.59 131.427 14.47C132.087 13.63 132.937 12.98 133.977 12.52C135.017 12.04 136.167 11.8 137.427 11.8ZM155.236 28.21C153.616 28.21 152.156 27.86 150.856 27.16C149.556 26.46 148.536 25.49 147.796 24.25C147.076 22.99 146.716 21.57 146.716 19.99C146.716 18.41 147.076 17 147.796 15.76C148.536 14.52 149.556 13.55 150.856 12.85C152.156 12.15 153.616 11.8 155.236 11.8C156.876 11.8 158.346 12.15 159.646 12.85C160.946 13.55 161.956 14.52 162.676 15.76C163.416 17 163.786 18.41 163.786 19.99C163.786 21.57 163.416 22.99 162.676 24.25C161.956 25.49 160.946 26.46 159.646 27.16C158.346 27.86 156.876 28.21 155.236 28.21ZM155.236 25C156.616 25 157.756 24.54 158.656 23.62C159.556 22.7 160.006 21.49 160.006 19.99C160.006 18.49 159.556 17.28 158.656 16.36C157.756 15.44 156.616 14.98 155.236 14.98C153.856 14.98 152.716 15.44 151.816 16.36C150.936 17.28 150.496 18.49 150.496 19.99C150.496 21.49 150.936 22.7 151.816 23.62C152.716 24.54 153.856 25 155.236 25ZM175.562 11.8C177.582 11.8 179.202 12.39 180.422 13.57C181.642 14.75 182.252 16.5 182.252 18.82V28H178.502V19.3C178.502 17.9 178.172 16.85 177.512 16.15C176.852 15.43 175.912 15.07 174.692 15.07C173.312 15.07 172.222 15.49 171.422 16.33C170.622 17.15 170.222 18.34 170.222 19.9V28H166.472V11.98H170.042V14.05C170.662 13.31 171.442 12.75 172.382 12.37C173.322 11.99 174.382 11.8 175.562 11.8ZM201.315 20.08C201.315 20.34 201.295 20.71 201.255 21.19H188.685C188.905 22.37 189.475 23.31 190.395 24.01C191.335 24.69 192.495 25.03 193.875 25.03C195.635 25.03 197.085 24.45 198.225 23.29L200.235 25.6C199.515 26.46 198.605 27.11 197.505 27.55C196.405 27.99 195.165 28.21 193.785 28.21C192.025 28.21 190.475 27.86 189.135 27.16C187.795 26.46 186.755 25.49 186.015 24.25C185.295 22.99 184.935 21.57 184.935 19.99C184.935 18.43 185.285 17.03 185.985 15.79C186.705 14.53 187.695 13.55 188.955 12.85C190.215 12.15 191.635 11.8 193.215 11.8C194.775 11.8 196.165 12.15 197.385 12.85C198.625 13.53 199.585 14.5 200.265 15.76C200.965 17 201.315 18.44 201.315 20.08ZM193.215 14.8C192.015 14.8 190.995 15.16 190.155 15.88C189.335 16.58 188.835 17.52 188.655 18.7H197.745C197.585 17.54 197.095 16.6 196.275 15.88C195.455 15.16 194.435 14.8 193.215 14.8ZM218.724 11.98L211.224 29.29C210.524 31.03 209.674 32.25 208.674 32.95C207.674 33.67 206.464 34.03 205.044 34.03C204.244 34.03 203.454 33.9 202.674 33.64C201.894 33.38 201.254 33.02 200.754 32.56L202.254 29.8C202.614 30.14 203.034 30.41 203.514 30.61C204.014 30.81 204.514 30.91 205.014 30.91C205.674 30.91 206.214 30.74 206.634 30.4C207.074 30.06 207.474 29.49 207.834 28.69L208.104 28.06L201.114 11.98H205.014L210.054 23.83L215.124 11.98H218.724Z" fill="white"/>
<defs>
<linearGradient id="paint0_linear_311_35" x1="13.6104" y1="2.50687" x2="9.57186" y2="25.3706" gradientUnits="userSpaceOnUse">
<stop stop-color="white"/>
<stop offset="0.5213" stop-color="#D8E3FE"/>
<stop offset="1" stop-color="#D3D2FF"/>
</linearGradient>
<clipPath id="clip0_311_35">
<rect width="39" height="25" fill="white" transform="translate(0 3)"/>
</clipPath>
</defs>
</svg>
