<svg width="120" height="120" viewBox="0 0 120 120" fill="none" xmlns="http://www.w3.org/2000/svg">
<g filter="url(#filter0_di_182_19322)">
<path d="M12 55C12 81.5097 33.4903 103 60 103C86.5097 103 108 81.5097 108 55C108 28.4903 86.5097 7 60 7C33.4903 7 12 28.4903 12 55Z" fill="white"/>
</g>
<path d="M41.7 43.6C41.7 43 41.4 42.4 41.1 42.1L36.6 36.7V35.8H50.4L61.2 59.5L70.8 35.8H84V36.7L80.1 40.3C79.8 40.6 79.5 40.9 79.8 41.5V68.5C79.8 68.8 79.8 69.4 80.1 69.7L83.7 73.3V74.2H64.8V73.3L68.7 69.4C69 69.1 69 68.8 69 68.2V46.3L58.2 73.6H57L44.4 46.3V64.6C44.4 65.5 44.7 66.1 45 66.7L50.1 72.7V73.6H36V72.7L41.1 66.7C41.7 66.1 42 65.5 41.7 64.6V43.6Z" fill="black"/>
<defs>
<filter id="filter0_di_182_19322" x="0.54224" y="0.54224" width="118.916" height="118.916" filterUnits="userSpaceOnUse" color-interpolation-filters="sRGB">
<feFlood flood-opacity="0" result="BackgroundImageFix"/>
<feColorMatrix in="SourceAlpha" type="matrix" values="0 0 0 0 0 0 0 0 0 0 0 0 0 0 0 0 0 0 127 0" result="hardAlpha"/>
<feOffset dy="5"/>
<feGaussianBlur stdDeviation="5.72888"/>
<feColorMatrix type="matrix" values="0 0 0 0 0 0 0 0 0 0 0 0 0 0 0 0 0 0 0.1 0"/>
<feBlend mode="normal" in2="BackgroundImageFix" result="effect1_dropShadow_182_19322"/>
<feBlend mode="normal" in="SourceGraphic" in2="effect1_dropShadow_182_19322" result="shape"/>
<feColorMatrix in="SourceAlpha" type="matrix" values="0 0 0 0 0 0 0 0 0 0 0 0 0 0 0 0 0 0 127 0" result="hardAlpha"/>
<feOffset dy="-2"/>
<feGaussianBlur stdDeviation="6"/>
<feComposite in2="hardAlpha" operator="arithmetic" k2="-1" k3="1"/>
<feColorMatrix type="matrix" values="0 0 0 0 0.559444 0 0 0 0 0.580133 0 0 0 0 0.633333 0 0 0 0.4 0"/>
<feBlend mode="normal" in2="shape" result="effect2_innerShadow_182_19322"/>
</filter>
</defs>
</svg>
