<svg width="174" height="122" viewBox="0 0 174 122" fill="none" xmlns="http://www.w3.org/2000/svg">
<g filter="url(#filter0_di_182_19663)">
<path fill-rule="evenodd" clip-rule="evenodd" d="M108.798 6.94619C103.292 6.84133 98.743 11.22 98.6381 16.7262C98.5333 22.2325 102.912 26.7811 108.418 26.886L127.777 27.2547L90.2197 64.7724L72.1765 46.0287C70.3242 44.1044 67.7773 43.0037 65.1065 42.9732C62.4357 42.9426 59.8642 43.9849 57.9684 45.8663L15.0959 88.413C11.1869 92.2923 11.1628 98.606 15.0421 102.515C18.9214 106.424 25.2351 106.448 29.1441 102.569L64.8301 67.154L82.8964 85.9218C84.7527 87.8502 87.3063 88.9513 89.9828 88.9775C92.6594 89.0037 95.2341 87.9527 97.1278 86.061L141.525 41.71L141.177 60.0322C141.072 65.5384 145.45 70.0871 150.957 70.192C156.463 70.2968 161.011 65.9182 161.116 60.4119L161.925 17.9315C162.03 12.4253 157.652 7.87658 152.145 7.77171L108.798 6.94619Z" fill="url(#paint0_linear_182_19663)"/>
</g>
<defs>
<filter id="filter0_di_182_19663" x="0.690678" y="-1.10747" width="172.694" height="123.028" filterUnits="userSpaceOnUse" color-interpolation-filters="sRGB">
<feFlood flood-opacity="0" result="BackgroundImageFix"/>
<feColorMatrix in="SourceAlpha" type="matrix" values="0 0 0 0 0 0 0 0 0 0 0 0 0 0 0 0 0 0 127 0" result="hardAlpha"/>
<feOffset dy="5"/>
<feGaussianBlur stdDeviation="5.72888"/>
<feColorMatrix type="matrix" values="0 0 0 0 0 0 0 0 0 0 0 0 0 0 0 0 0 0 0.1 0"/>
<feBlend mode="normal" in2="BackgroundImageFix" result="effect1_dropShadow_182_19663"/>
<feBlend mode="normal" in="SourceGraphic" in2="effect1_dropShadow_182_19663" result="shape"/>
<feColorMatrix in="SourceAlpha" type="matrix" values="0 0 0 0 0 0 0 0 0 0 0 0 0 0 0 0 0 0 127 0" result="hardAlpha"/>
<feOffset dy="-8.0518"/>
<feGaussianBlur stdDeviation="6"/>
<feComposite in2="hardAlpha" operator="arithmetic" k2="-1" k3="1"/>
<feColorMatrix type="matrix" values="0 0 0 0 0.7875 0 0 0 0 0.00328124 0 0 0 0 0.662025 0 0 0 0.47 0"/>
<feBlend mode="normal" in2="shape" result="effect2_innerShadow_182_19663"/>
</filter>
<linearGradient id="paint0_linear_182_19663" x1="76.5002" y1="46" x2="123.277" y2="142.703" gradientUnits="userSpaceOnUse">
<stop stop-color="#FD75E7"/>
<stop offset="1" stop-color="#FF0AE6"/>
</linearGradient>
</defs>
</svg>
