<svg width="72" height="72" viewBox="0 0 72 72" fill="none" xmlns="http://www.w3.org/2000/svg">
<g clip-path="url(#clip0_223_22392)">
<path d="M21.9683 9.57828L7.59976 23.9468C6.81871 24.7279 6.81871 25.9942 7.59976 26.7753L36.1728 55.3483M36.1728 55.3483V64.4234M36.1728 55.3483L54.6138 36.409M49.9828 9.57828L64.0106 23.9658C64.7676 24.7422 64.768 25.9803 64.0115 26.7572L54.6138 36.409M54.6138 36.409L63.9942 46.043C64.7575 46.8269 64.7492 48.0787 63.9755 48.8524L49.9828 62.8452M54.6138 36.409L36.1728 17.8642M36.1728 17.8642V8M36.1728 17.8642L8.35481 45.3063C7.58573 46.065 7.55815 47.2973 8.29251 48.0897L21.9683 62.8452" stroke="url(#paint0_linear_223_22392)" stroke-width="8" stroke-linecap="round"/>
<g filter="url(#filter0_di_223_22392)">
<path d="M20.7828 9.57828L6.41421 23.9468C5.63316 24.7279 5.63316 25.9942 6.41421 26.7753L34.9873 55.3483M34.9873 55.3483V64.4234M34.9873 55.3483L53.4282 36.409M48.7972 9.57828L62.8251 23.9658C63.582 24.7422 63.5824 25.9803 62.826 26.7572L53.4282 36.409M53.4282 36.409L62.8087 46.043C63.572 46.8269 63.5636 48.0787 62.7899 48.8524L48.7972 62.8452M53.4282 36.409L34.9873 17.8642M34.9873 17.8642V8M34.9873 17.8642L7.16926 45.3063C6.40018 46.065 6.3726 47.2973 7.10696 48.0897L20.7828 62.8452" stroke="url(#paint1_linear_223_22392)" stroke-width="8" stroke-linecap="round"/>
</g>
</g>
<defs>
<filter id="filter0_di_223_22392" x="-2.17139" y="-4.0518" width="73.5645" height="77.4753" filterUnits="userSpaceOnUse" color-interpolation-filters="sRGB">
<feFlood flood-opacity="0" result="BackgroundImageFix"/>
<feColorMatrix in="SourceAlpha" type="matrix" values="0 0 0 0 0 0 0 0 0 0 0 0 0 0 0 0 0 0 127 0" result="hardAlpha"/>
<feOffset dy="1"/>
<feGaussianBlur stdDeviation="2"/>
<feColorMatrix type="matrix" values="0 0 0 0 0 0 0 0 0 0 0 0 0 0 0 0 0 0 0.08 0"/>
<feBlend mode="normal" in2="BackgroundImageFix" result="effect1_dropShadow_223_22392"/>
<feBlend mode="normal" in="SourceGraphic" in2="effect1_dropShadow_223_22392" result="shape"/>
<feColorMatrix in="SourceAlpha" type="matrix" values="0 0 0 0 0 0 0 0 0 0 0 0 0 0 0 0 0 0 127 0" result="hardAlpha"/>
<feOffset dy="-8.0518"/>
<feGaussianBlur stdDeviation="8.0518"/>
<feComposite in2="hardAlpha" operator="arithmetic" k2="-1" k3="1"/>
<feColorMatrix type="matrix" values="0 0 0 0 0.470833 0 0 0 0 0.619 0 0 0 0 1 0 0 0 0.47 0"/>
<feBlend mode="normal" in2="shape" result="effect2_innerShadow_223_22392"/>
</filter>
<linearGradient id="paint0_linear_223_22392" x1="26.8377" y1="6.8887" x2="13.763" y2="56.6653" gradientUnits="userSpaceOnUse">
<stop stop-color="#A0B1EE"/>
<stop offset="0.5213" stop-color="#396FFA"/>
<stop offset="1" stop-color="#4440FC"/>
</linearGradient>
<linearGradient id="paint1_linear_223_22392" x1="25.6522" y1="6.8887" x2="12.5774" y2="56.6653" gradientUnits="userSpaceOnUse">
<stop stop-color="white"/>
<stop offset="0.5213" stop-color="#F1F5FF"/>
<stop offset="1" stop-color="#DFDEFF"/>
</linearGradient>
<clipPath id="clip0_223_22392">
<rect width="72" height="72" fill="white"/>
</clipPath>
</defs>
</svg>
