<svg width="120" height="120" viewBox="0 0 120 120" fill="none" xmlns="http://www.w3.org/2000/svg">
<g filter="url(#filter0_di_182_19319)">
<path d="M12 55C12 81.5097 33.4903 103 60 103C86.5097 103 108 81.5097 108 55C108 28.4903 86.5097 7 60 7C33.4903 7 12 28.4903 12 55Z" fill="#2DB9FF"/>
</g>
<path d="M36.2997 54.1249C49.1846 48.5111 57.7766 44.8102 62.0756 43.0221C74.3501 37.9167 76.9006 37.0299 78.563 37.0003C78.9286 36.9942 79.7461 37.0848 80.2757 37.5145C80.7229 37.8773 80.8459 38.3674 80.9048 38.7114C80.9636 39.0554 81.0369 39.8391 80.9787 40.4514C80.3135 47.4403 77.4354 64.4005 75.9711 72.2281C75.3516 75.5403 74.1316 76.6509 72.9505 76.7596C70.3838 76.9958 68.4348 75.0633 65.9488 73.4337C62.0587 70.8837 59.8611 69.2963 56.0851 66.808C51.7213 63.9323 54.5502 62.3518 57.0371 59.7688C57.6879 59.0928 68.9969 48.8064 69.2158 47.8732C69.2432 47.7565 69.2686 47.3215 69.0101 47.0918C68.7517 46.8621 68.3703 46.9407 68.095 47.0031C67.7049 47.0917 61.4904 51.1992 49.4517 59.3257C47.6877 60.537 46.09 61.1271 44.6585 61.0962C43.0803 61.0621 40.0447 60.2039 37.7879 59.4703C35.02 58.5706 32.8201 58.0949 33.0116 56.5668C33.1114 55.7709 34.2074 54.9569 36.2997 54.1249Z" fill="white"/>
<defs>
<filter id="filter0_di_182_19319" x="0.54224" y="-1.0518" width="118.916" height="120.51" filterUnits="userSpaceOnUse" color-interpolation-filters="sRGB">
<feFlood flood-opacity="0" result="BackgroundImageFix"/>
<feColorMatrix in="SourceAlpha" type="matrix" values="0 0 0 0 0 0 0 0 0 0 0 0 0 0 0 0 0 0 127 0" result="hardAlpha"/>
<feOffset dy="5"/>
<feGaussianBlur stdDeviation="5.72888"/>
<feColorMatrix type="matrix" values="0 0 0 0 0 0 0 0 0 0 0 0 0 0 0 0 0 0 0.1 0"/>
<feBlend mode="normal" in2="BackgroundImageFix" result="effect1_dropShadow_182_19319"/>
<feBlend mode="normal" in="SourceGraphic" in2="effect1_dropShadow_182_19319" result="shape"/>
<feColorMatrix in="SourceAlpha" type="matrix" values="0 0 0 0 0 0 0 0 0 0 0 0 0 0 0 0 0 0 127 0" result="hardAlpha"/>
<feOffset dy="-8.0518"/>
<feGaussianBlur stdDeviation="8.0518"/>
<feComposite in2="hardAlpha" operator="arithmetic" k2="-1" k3="1"/>
<feColorMatrix type="matrix" values="0 0 0 0 0 0 0 0 0 0.485333 0 0 0 0 0.758333 0 0 0 0.47 0"/>
<feBlend mode="normal" in2="shape" result="effect2_innerShadow_182_19319"/>
</filter>
</defs>
</svg>
